<svg width="21" height="21" viewBox="0 0 21 21" fill="none" xmlns="http://www.w3.org/2000/svg">
<path d="M10.4996 18.9C12.7274 18.9 14.864 18.015 16.4393 16.4397C18.0146 14.8644 18.8996 12.7278 18.8996 10.5C18.8996 8.27216 18.0146 6.13558 16.4393 4.56028C14.864 2.98497 12.7274 2.09998 10.4996 2.09998C8.27179 2.09998 6.13522 2.98497 4.55991 4.56028C2.98461 6.13558 2.09961 8.27216 2.09961 10.5C2.09961 12.7278 2.98461 14.8644 4.55991 16.4397C6.13522 18.015 8.27179 18.9 10.4996 18.9ZM10.4996 3.14998C11.1895 3.14998 11.977 3.76948 12.6227 5.15338C12.8506 5.64268 13.049 6.20548 13.2097 6.82498H7.78956C7.95021 6.20548 8.14866 5.64268 8.37756 5.15338C9.02121 3.76948 9.80871 3.14998 10.4996 3.14998ZM7.42521 4.70923C7.11514 5.38838 6.87486 6.09726 6.70806 6.82498H4.13241C5.01872 5.29277 6.4268 4.13067 8.09931 3.55108C7.84626 3.89758 7.62051 4.29028 7.42521 4.70923ZM6.50121 7.87498C6.36545 8.74336 6.29804 9.62105 6.29961 10.5C6.29961 11.4135 6.36996 12.2976 6.50226 13.125H3.63261C3.31275 12.2868 3.14906 11.3971 3.14961 10.5C3.14961 9.57598 3.32076 8.68978 3.63261 7.87498H6.50121ZM6.70806 14.175C6.89286 14.9551 7.13541 15.6681 7.42521 16.2907C7.62051 16.7097 7.84626 17.1024 8.09931 17.4489C6.4268 16.8693 5.01872 15.7072 4.13241 14.175H6.70806ZM7.78956 14.175H13.2097C13.0647 14.7488 12.8679 15.3083 12.6217 15.8466C11.978 17.2305 11.1905 17.85 10.4996 17.85C9.80871 17.85 9.02226 17.2305 8.37651 15.8466C8.13097 15.3083 7.93382 14.7488 7.78956 14.175ZM13.4344 13.125H7.56591C7.42064 12.2576 7.34829 11.3795 7.34961 10.5C7.34961 9.57283 7.42626 8.68873 7.56591 7.87498H13.4333C13.573 8.68873 13.6496 9.57283 13.6496 10.5C13.6496 11.4271 13.573 12.3112 13.4333 13.125M14.2912 14.175H16.8668C15.9805 15.7072 14.5724 16.8693 12.8999 17.4489C13.153 17.1024 13.3787 16.7097 13.574 16.2907C13.8638 15.6681 14.1064 14.9551 14.2912 14.175ZM17.3677 13.125H14.497C14.6293 12.2976 14.6996 11.4135 14.6996 10.5C14.6996 9.58648 14.6293 8.70238 14.497 7.87498H17.3666C17.6785 8.68978 17.8496 9.57598 17.8496 10.5C17.8496 11.424 17.6795 12.3102 17.3677 13.125ZM12.8989 3.55108C14.5718 4.13045 15.9802 5.29257 16.8668 6.82498H14.2901C14.1233 6.09726 13.883 5.38838 13.573 4.70923C13.3862 4.30231 13.1604 3.91444 12.8989 3.55108Z" fill="#F8F8F8"/>
</svg>
