<svg width="1274" height="330" viewBox="0 0 1274 330" fill="none" xmlns="http://www.w3.org/2000/svg">
<g style="mix-blend-mode:difference">
<path d="M1074.88 231.32C1067.28 231.24 1061.44 228.88 1057.36 224.24C1053.36 219.6 1051.36 213.4 1051.36 205.64C1051.36 199.24 1053.28 192.76 1057.12 186.2C1060.96 179.64 1066.28 174.08 1073.08 169.52C1079.96 164.8 1087.16 162.28 1094.68 161.96C1097.08 153.48 1102.4 145.68 1110.64 138.56C1118.88 131.28 1128.48 125.64 1139.44 121.64C1150.48 117.64 1161.28 115.64 1171.84 115.64C1180.96 115.64 1189.16 116.96 1196.44 119.6C1203.8 122.16 1211.04 126.2 1218.16 131.72L1216.84 131.6L1216.72 131.48H1216.48L1214.68 130.76C1210.36 129.56 1206.88 128.92 1204.24 128.84C1187.28 129.24 1177.88 142.72 1176.04 169.28C1174.84 183.04 1172.28 194.28 1168.36 203C1166.76 206.6 1165.08 209.76 1163.32 212.48C1168.12 206.8 1175 196.92 1183.96 182.84C1192.12 169.8 1198.32 160.6 1202.56 155.24C1221.12 132.36 1238.88 120.92 1255.84 120.92C1261.36 120.92 1265.72 122.08 1268.92 124.4C1272.2 126.64 1273.84 129.4 1273.84 132.68C1273.84 136.36 1271.84 139.24 1267.84 141.32L1267.6 140.84C1271.28 138.68 1273.12 135.96 1273.12 132.68C1273.12 129.64 1271.56 127.04 1268.44 124.88C1265.32 122.72 1261.12 121.64 1255.84 121.64C1239.12 121.64 1221.64 133.04 1203.4 155.84C1199.8 160.24 1193.56 169.44 1184.68 183.44C1172.68 202.56 1163.16 215.24 1156.12 221.48C1153.24 224.2 1150.36 226.12 1147.48 227.24C1145.32 228.2 1143.28 228.72 1141.36 228.8L1140.4 227.84C1141.04 227.84 1141.44 227.8 1141.6 227.72C1149.04 226.76 1154.64 222 1158.4 213.44C1159.44 211.2 1160.24 208.48 1160.8 205.28C1161.52 201.84 1162 199 1162.24 196.76C1162.48 195.16 1162.88 191.96 1163.44 187.16C1164.32 179.32 1165.24 173 1166.2 168.2C1168.04 159.16 1170.96 151.48 1174.96 145.16C1178.96 138.84 1183.72 134.24 1189.24 131.36C1182.44 134 1175.44 138.68 1168.24 145.4C1165.04 148.36 1161.6 152 1157.92 156.32C1154.88 159.84 1151.8 163.56 1148.68 167.48C1148.44 167.8 1145.24 172 1139.08 180.08C1138.12 181.28 1137 182.72 1135.72 184.4C1134.52 186 1133.48 187.36 1132.6 188.48C1131.8 189.52 1131.12 190.4 1130.56 191.12L1122.28 201.32C1118.6 205.72 1115.64 209 1113.4 211.16C1111.4 213.08 1108.44 215.72 1104.52 219.08C1101.24 221.96 1098.08 224.2 1095.04 225.8C1088 229.48 1081.28 231.32 1074.88 231.32ZM1173.04 116.48C1165.2 116.4 1157.28 117.76 1149.28 120.56C1141.36 123.28 1134.2 126.96 1127.8 131.6C1114.92 140.96 1105.92 151.16 1100.8 162.2C1105.84 163 1109.96 165.12 1113.16 168.56C1116.36 172 1117.96 176.28 1117.96 181.4C1117.96 183.32 1117.64 185.48 1117 187.88C1123.4 185.8 1129.2 181.88 1134.4 176.12C1139.6 170.28 1142.2 163.92 1142.2 157.04C1142.2 152.48 1140.2 149.88 1136.2 149.24V148.76L1136.8 148.52C1140.88 149.32 1142.92 152.16 1142.92 157.04C1142.92 164.32 1140.2 170.92 1134.76 176.84C1129.32 182.76 1123.32 186.72 1116.76 188.72C1115.48 192.88 1113.4 196.36 1110.52 199.16C1107.72 201.88 1104.48 203.44 1100.8 203.84V203.36C1103.92 202.96 1106.88 201.44 1109.68 198.8C1112.48 196.08 1114.56 192.8 1115.92 188.96C1114.16 189.52 1112.28 189.8 1110.28 189.8C1104.76 189.8 1100.56 188.2 1097.68 185C1094.8 181.72 1093.36 177.08 1093.36 171.08C1093.36 168.2 1093.72 165.4 1094.44 162.68C1087.64 163.32 1081.16 166.28 1075 171.56C1068.84 176.92 1063.96 183.16 1060.36 190.28C1056.84 197.56 1055.08 204.36 1055.08 210.68C1055.08 216.44 1056.88 221.16 1060.48 224.84C1064.08 228.52 1068.96 230.4 1075.12 230.48C1079.04 230.48 1082.92 229.88 1086.76 228.68C1092.6 226.84 1099.8 222.24 1108.36 214.88C1111.4 212.24 1114.88 208.64 1118.8 204.08C1121.84 200.56 1125 196.76 1128.28 192.68C1129.72 190.92 1133 186.64 1138.12 179.84L1146.28 169.04L1154.44 159.08C1157.96 154.92 1160.84 151.68 1163.08 149.36C1165 147.44 1167.84 144.8 1171.6 141.44C1175.04 138.48 1178.16 136.2 1180.96 134.6C1187.76 130.68 1194.28 128.56 1200.52 128.24C1200.76 128.16 1201.4 128.12 1202.44 128.12H1202.56C1207.12 128.12 1211.16 128.76 1214.68 130.04C1202.36 121.08 1188.48 116.56 1173.04 116.48ZM1117.24 181.4C1117.24 176.68 1115.64 172.6 1112.44 169.16C1109.32 165.72 1105.32 163.64 1100.44 162.92C1098.44 167.16 1097.44 171.28 1097.44 175.28C1097.44 179.36 1098.52 182.68 1100.68 185.24C1102.84 187.8 1106.04 189.08 1110.28 189.08C1112.44 189.08 1114.4 188.8 1116.16 188.24C1116.88 185.92 1117.24 183.64 1117.24 181.4Z" fill="#F8F8F8"/>
</g>
<g style="mix-blend-mode:difference">
<path d="M277.793 221V136.449H290.918V172.191H334.277V136.449H347.461V221H334.277V183.559H290.918V221H277.793ZM359.505 221V136.449H413.177V147.816H372.63V172.426H411.009V183.441H372.63V209.633H413.177V221H359.505ZM443.829 221V136.449H456.954V221H443.829ZM468.94 221V136.449H481.069L533.1 211.156L519.213 198.852H524.897V136.449H537.963V221H525.834L473.803 146.176L487.69 158.422H482.006V221H468.94ZM556.512 221V210.277H581.238C587.098 210.277 591.57 209.105 594.656 206.762C597.742 204.418 599.285 201 599.285 196.508V196.391C599.285 193.344 598.562 190.805 597.117 188.773C595.711 186.742 593.602 185.219 590.789 184.203C587.977 183.148 584.48 182.621 580.301 182.621H556.512V172.484H577.664C583.445 172.484 587.859 171.352 590.906 169.086C593.953 166.82 595.477 163.578 595.477 159.359V159.242C595.477 155.336 594.168 152.348 591.551 150.277C588.973 148.207 585.301 147.172 580.535 147.172H556.512V136.449H583.699C588.738 136.449 593.113 137.328 596.824 139.086C600.574 140.805 603.465 143.266 605.496 146.469C607.566 149.633 608.602 153.344 608.602 157.602V157.719C608.602 160.688 607.918 163.5 606.551 166.156C605.184 168.812 603.309 171.039 600.926 172.836C598.582 174.633 595.906 175.746 592.898 176.176V176.41C596.922 176.801 600.418 177.934 603.387 179.809C606.395 181.645 608.699 184.047 610.301 187.016C611.941 189.945 612.762 193.285 612.762 197.035V197.152C612.762 202.113 611.59 206.371 609.246 209.926C606.941 213.48 603.641 216.215 599.344 218.129C595.047 220.043 589.891 221 583.875 221H556.512ZM549.949 221V136.449H563.074V221H549.949ZM657.033 222.406C648.869 222.406 641.818 220.648 635.88 217.133C629.943 213.578 625.373 208.539 622.17 202.016C618.966 195.453 617.365 187.699 617.365 178.754V178.637C617.365 169.691 618.966 161.957 622.17 155.434C625.412 148.91 630.002 143.891 635.939 140.375C641.877 136.82 648.908 135.043 657.033 135.043C665.119 135.043 672.13 136.82 678.068 140.375C684.005 143.93 688.576 148.969 691.779 155.492C694.982 161.977 696.584 169.691 696.584 178.637V178.754C696.584 187.699 694.982 195.434 691.779 201.957C688.576 208.48 684.005 213.52 678.068 217.074C672.17 220.629 665.158 222.406 657.033 222.406ZM657.033 210.746C662.423 210.746 667.072 209.438 670.978 206.82C674.884 204.203 677.892 200.492 680.002 195.688C682.111 190.883 683.166 185.238 683.166 178.754V178.637C683.166 172.113 682.091 166.469 679.943 161.703C677.834 156.898 674.806 153.207 670.861 150.629C666.955 148.012 662.345 146.703 657.033 146.703C651.681 146.703 647.033 147.992 643.087 150.57C639.181 153.148 636.154 156.84 634.005 161.645C631.857 166.41 630.783 172.074 630.783 178.637V178.754C630.783 185.277 631.857 190.941 634.005 195.746C636.154 200.551 639.181 204.262 643.087 206.879C646.994 209.457 651.642 210.746 657.033 210.746ZM695.152 221L726.382 173.773L723.277 184.203V178.285L695.445 136.449H711.148L732.066 169.203H738.101L729.429 174.066L753.511 136.449H768.394L739.683 178.695V184.672L736.577 174.242L767.866 221H752.456L731.362 188.773H725.327L734.058 183.969L709.741 221H695.152ZM795.823 221V136.449H808.948V221H795.823ZM849.762 222.406C843.434 222.406 837.887 221.449 833.121 219.535C828.395 217.621 824.645 214.887 821.871 211.332C819.098 207.738 817.535 203.461 817.184 198.5L817.125 197.621H829.957L830.074 198.383C830.465 200.961 831.539 203.207 833.297 205.121C835.094 206.996 837.438 208.441 840.328 209.457C843.219 210.473 846.539 210.98 850.289 210.98C854.078 210.98 857.34 210.453 860.074 209.398C862.809 208.344 864.918 206.84 866.402 204.887C867.926 202.934 868.688 200.648 868.688 198.031V197.973C868.688 194.574 867.457 191.879 864.996 189.887C862.574 187.855 858.551 186.234 852.926 185.023L843.727 183.09C835.445 181.332 829.273 178.52 825.211 174.652C821.148 170.746 819.117 165.668 819.117 159.418V159.359C819.156 154.555 820.484 150.336 823.102 146.703C825.719 143.031 829.332 140.18 833.941 138.148C838.551 136.078 843.844 135.043 849.82 135.043C855.68 135.043 860.855 136.039 865.348 138.031C869.84 140.023 873.395 142.816 876.012 146.41C878.629 149.965 880.094 154.125 880.406 158.891L880.465 159.828H867.633L867.516 159.066C867.164 156.41 866.188 154.145 864.586 152.27C863.023 150.395 860.973 148.969 858.434 147.992C855.895 146.977 852.945 146.469 849.586 146.469C846.109 146.469 843.082 146.996 840.504 148.051C837.926 149.066 835.934 150.492 834.527 152.328C833.121 154.164 832.418 156.332 832.418 158.832V158.891C832.418 162.055 833.668 164.633 836.168 166.625C838.668 168.617 842.555 170.18 847.828 171.312L857.027 173.305C865.777 175.141 872.125 177.953 876.07 181.742C880.055 185.492 882.047 190.629 882.047 197.152V197.211C882.047 202.367 880.738 206.84 878.121 210.629C875.543 214.379 871.832 217.289 866.988 219.359C862.184 221.391 856.441 222.406 849.762 222.406ZM947.503 222.406C939.339 222.406 932.288 220.648 926.351 217.133C920.413 213.578 915.843 208.539 912.64 202.016C909.437 195.453 907.835 187.699 907.835 178.754V178.637C907.835 169.691 909.437 161.957 912.64 155.434C915.882 148.91 920.472 143.891 926.409 140.375C932.347 136.82 939.378 135.043 947.503 135.043C955.589 135.043 962.601 136.82 968.538 140.375C974.476 143.93 979.046 148.969 982.249 155.492C985.452 161.977 987.054 169.691 987.054 178.637V178.754C987.054 187.699 985.452 195.434 982.249 201.957C979.046 208.48 974.476 213.52 968.538 217.074C962.64 220.629 955.628 222.406 947.503 222.406ZM947.503 210.746C952.894 210.746 957.542 209.438 961.448 206.82C965.355 204.203 968.362 200.492 970.472 195.688C972.581 190.883 973.636 185.238 973.636 178.754V178.637C973.636 172.113 972.562 166.469 970.413 161.703C968.304 156.898 965.277 153.207 961.331 150.629C957.425 148.012 952.816 146.703 947.503 146.703C942.152 146.703 937.503 147.992 933.558 150.57C929.652 153.148 926.624 156.84 924.476 161.645C922.327 166.41 921.253 172.074 921.253 178.637V178.754C921.253 185.277 922.327 190.941 924.476 195.746C926.624 200.551 929.652 204.262 933.558 206.879C937.464 209.457 942.112 210.746 947.503 210.746ZM1002.56 192.113V181.098H1024.24C1029.9 181.098 1034.29 179.633 1037.42 176.703C1040.58 173.734 1042.16 169.633 1042.16 164.398V164.281C1042.16 158.969 1040.58 154.848 1037.42 151.918C1034.29 148.988 1029.9 147.523 1024.24 147.523H1002.56V136.449H1027.52C1033.06 136.449 1037.93 137.621 1042.11 139.965C1046.33 142.27 1049.63 145.512 1052.01 149.691C1054.39 153.832 1055.58 158.656 1055.58 164.164V164.281C1055.58 169.789 1054.39 174.652 1052.01 178.871C1049.63 183.051 1046.33 186.312 1042.11 188.656C1037.93 190.961 1033.06 192.113 1027.52 192.113H1002.56ZM995.993 221V136.449H1009.12V221H995.993ZM1063.53 221V136.449H1117.2V147.816H1076.65V172.426H1115.03V183.441H1076.65V209.633H1117.2V221H1063.53Z" fill="#F8F8F8"/>
</g>
<g style="mix-blend-mode:difference">
<path d="M221.133 66.4465C237.651 67.9333 252.917 75.7474 263.574 88.1699C274.231 100.592 279.404 116.606 277.957 132.687L268.133 241.829L293.046 244.071L290.863 268.325L41.7354 245.901C35.1281 245.306 29.0215 242.18 24.7588 237.212C20.4962 232.243 18.4267 225.837 19.0057 219.405L28.8295 110.263C29.5462 102.3 31.8669 94.5607 35.659 87.4859C39.4511 80.4112 44.6404 74.1398 50.9306 69.03C57.2208 63.9201 64.4887 60.0718 72.3193 57.7048C80.15 55.3378 88.39 54.4984 96.569 55.2346L221.133 66.4465ZM218.95 90.7002C209.039 89.8081 199.189 92.7855 191.566 98.9774C183.944 105.169 179.174 114.068 178.306 123.717L168.482 232.859L243.22 239.586L253.044 130.444C253.913 120.796 250.808 111.188 244.414 103.734C238.02 96.2808 228.86 91.5923 218.95 90.7002ZM149.027 169.982L155.576 97.2211L105.751 92.7364L103.568 116.99L128.48 119.232L124.114 167.74L149.027 169.982Z" fill="#F8F8F8"/>
</g>
<g style="mix-blend-mode:difference">
<path d="M196.96 234.56H198.04C206.52 234.56 215.24 230.72 224.2 223.04C228.44 219.52 232.48 215.76 236.32 211.76C240.24 207.76 244.4 203.08 248.8 197.72C263.68 180.28 273.32 169.24 277.72 164.6C290.92 150.84 300.52 144.6 306.52 145.88L307.36 146.24C300.64 145.44 293.68 149.84 286.48 159.44C283.36 163.36 280.08 168 276.64 173.36L265.96 189.68C261.8 195.92 258.28 200.84 255.4 204.44C247.48 214.04 238.48 221.48 228.4 226.76C218.4 232.04 208.28 234.88 198.04 235.28H197.2C190 235.28 184 232.8 179.2 227.84C174.48 222.88 172.12 216.84 172.12 209.72C172.12 200.92 175.2 193 181.36 185.96C180.96 182.84 181.2 179.36 182.08 175.52C183.44 168.88 186.28 162.36 190.6 155.96C194.92 149.48 200.24 143.68 206.56 138.56C212.96 133.36 220.44 129.24 229 126.2C237.64 123.16 246.44 121.64 255.4 121.64C261.56 121.64 268.4 122.56 275.92 124.4C283.52 126.24 290 128.2 295.36 130.28C301.52 132.52 308.16 134.48 315.28 136.16C322.8 137.92 330.08 138.8 337.12 138.8C347.6 138.8 355.08 136.44 359.56 131.72C362.76 128.36 363.36 125.08 361.36 121.88C360.32 120.28 358.64 118.92 356.32 117.8H357.16C361.72 119.72 363.84 123 363.52 127.64C363.28 132.52 360.56 136.88 355.36 140.72C349.76 144.88 342.76 146.96 334.36 146.96C328.52 146.96 322.16 145.72 315.28 143.24C308.32 140.68 302.12 137.92 296.68 134.96C291.08 131.92 284.68 129.16 277.48 126.68C270.2 124.12 263.44 122.84 257.2 122.84C250.08 122.84 242.84 124.08 235.48 126.56C228.2 128.96 221.56 132.24 215.56 136.4C207 142.16 199.6 149 193.36 156.92C187.2 164.84 183.56 171.92 182.44 178.16C181.88 180.72 181.72 183.08 181.96 185.24C188.76 177.72 196.76 173.96 205.96 173.96H206.32V174.68H205.96C196.84 174.68 188.88 178.52 182.08 186.2C182.64 190.52 184.36 194 187.24 196.64C190.12 199.2 194.08 200.48 199.12 200.48C202.88 200.48 207.08 199.48 211.72 197.48C216.44 195.48 220.88 192.8 225.04 189.44C229.36 186 232.88 181.84 235.6 176.96C238.48 172.08 239.92 167 239.92 161.72C239.92 156.6 237.76 153.6 233.44 152.72V152C238.24 152.96 240.64 156.2 240.64 161.72C240.64 166.84 239.24 171.96 236.44 177.08C233.64 182.12 230.04 186.4 225.64 189.92C221.32 193.36 216.76 196.12 211.96 198.2C207.24 200.2 202.96 201.2 199.12 201.2C194.08 201.2 190.04 199.96 187 197.48C183.96 194.92 182.12 191.36 181.48 186.8C175.64 193.6 172.72 201.24 172.72 209.72C172.72 216.68 175.04 222.52 179.68 227.24C184.32 232.12 190.08 234.56 196.96 234.56Z" fill="#F8F8F8"/>
</g>
<path d="M485.5 286.422C483.145 286.422 481.094 285.883 479.348 284.805C477.614 283.715 476.266 282.18 475.305 280.199C474.356 278.219 473.881 275.881 473.881 273.186V273.168C473.881 270.52 474.356 268.229 475.305 266.295C476.266 264.361 477.614 262.867 479.348 261.812C481.094 260.746 483.145 260.213 485.5 260.213C487.446 260.213 489.127 260.559 490.545 261.25C491.975 261.93 493.147 262.861 494.061 264.045C494.975 265.217 495.625 266.553 496.012 268.053L496.1 268.387H492.778L492.707 268.193C492.122 266.588 491.219 265.346 490 264.467C488.782 263.576 487.282 263.131 485.5 263.131C483.766 263.131 482.272 263.535 481.018 264.344C479.764 265.141 478.797 266.289 478.118 267.789C477.45 269.289 477.116 271.082 477.116 273.168V273.186C477.116 275.307 477.456 277.141 478.135 278.688C478.815 280.234 479.782 281.424 481.036 282.256C482.29 283.088 483.778 283.504 485.5 283.504C487 283.504 488.319 283.205 489.456 282.607C490.604 281.998 491.495 281.154 492.127 280.076C492.772 278.998 493.094 277.75 493.094 276.332V275.875H485.94V273.098H496.258V275.506C496.258 277.791 495.831 279.748 494.975 281.377C494.12 283.006 492.889 284.254 491.284 285.121C489.69 285.988 487.762 286.422 485.5 286.422ZM509.961 286.422C507.559 286.422 505.479 285.889 503.721 284.822C501.975 283.756 500.627 282.244 499.678 280.287C498.729 278.33 498.254 276.01 498.254 273.326V273.291C498.254 270.607 498.729 268.293 499.678 266.348C500.639 264.391 501.993 262.879 503.739 261.812C505.497 260.746 507.571 260.213 509.961 260.213C512.352 260.213 514.42 260.746 516.167 261.812C517.913 262.879 519.26 264.391 520.21 266.348C521.159 268.293 521.633 270.607 521.633 273.291V273.326C521.633 276.01 521.159 278.33 520.21 280.287C519.26 282.244 517.913 283.756 516.167 284.822C514.432 285.889 512.364 286.422 509.961 286.422ZM509.961 283.504C511.708 283.504 513.208 283.088 514.461 282.256C515.727 281.412 516.7 280.229 517.379 278.705C518.059 277.182 518.399 275.389 518.399 273.326V273.291C518.399 271.217 518.053 269.418 517.362 267.895C516.682 266.371 515.71 265.199 514.444 264.379C513.178 263.547 511.684 263.131 509.961 263.131C508.239 263.131 506.739 263.547 505.461 264.379C504.196 265.199 503.217 266.371 502.526 267.895C501.835 269.406 501.489 271.205 501.489 273.291V273.326C501.489 275.4 501.835 277.199 502.526 278.723C503.217 280.246 504.196 281.424 505.461 282.256C506.727 283.088 508.227 283.504 509.961 283.504ZM529.325 286V263.482H521.327V260.635H540.487V263.482H532.489V286H529.325ZM554.288 286L547.38 260.635H550.684L555.8 281.465H555.87L561.618 260.635H564.817L570.565 281.465H570.636L575.751 260.635H579.055L572.147 286H569.159L563.253 265.68H563.182L557.276 286H554.288ZM581.227 286V260.635H584.391V286H581.227ZM588.233 286V260.635H591.397V283.152H603.632V286H588.233ZM606.032 286V260.635H614.558C617.065 260.635 619.21 261.139 620.991 262.146C622.772 263.143 624.138 264.584 625.087 266.471C626.048 268.346 626.528 270.613 626.528 273.273V273.309C626.528 275.969 626.054 278.248 625.105 280.146C624.155 282.045 622.79 283.498 621.009 284.506C619.228 285.502 617.077 286 614.558 286H606.032ZM609.196 283.152H614.347C616.269 283.152 617.892 282.771 619.216 282.01C620.552 281.248 621.565 280.141 622.257 278.688C622.948 277.223 623.294 275.441 623.294 273.344V273.309C623.294 271.199 622.948 269.412 622.257 267.947C621.565 266.482 620.552 265.375 619.216 264.625C617.892 263.863 616.269 263.482 614.347 263.482H609.196V283.152ZM635.689 286V260.635H638.853V286H635.689ZM642.695 286V260.635H651.22C653.728 260.635 655.872 261.139 657.654 262.146C659.435 263.143 660.8 264.584 661.749 266.471C662.71 268.346 663.191 270.613 663.191 273.273V273.309C663.191 275.969 662.716 278.248 661.767 280.146C660.818 282.045 659.452 283.498 657.671 284.506C655.89 285.502 653.74 286 651.22 286H642.695ZM645.859 283.152H651.009C652.931 283.152 654.554 282.771 655.878 282.01C657.214 281.248 658.228 280.141 658.919 278.688C659.611 277.223 659.956 275.441 659.956 273.344V273.309C659.956 271.199 659.611 269.412 658.919 267.947C658.228 266.482 657.214 265.375 655.878 264.625C654.554 263.863 652.931 263.482 651.009 263.482H645.859V283.152ZM666.048 286V260.635H681.763V263.482H669.212V271.621H681.113V274.434H669.212V283.152H681.763V286H666.048ZM682.845 286L692.285 260.635H694.622V264.432H693.814L686.167 286H682.845ZM687.169 278.74L688.224 276.051H699.474L700.529 278.74H687.169ZM701.513 286L693.884 264.432V260.635H695.414L704.835 286H701.513ZM709.468 278.16V276.543C709.468 275.77 709.591 275.072 709.837 274.451C710.095 273.818 710.482 273.238 710.998 272.711C711.525 272.184 712.187 271.68 712.984 271.199C713.664 270.777 714.208 270.367 714.619 269.969C715.041 269.559 715.345 269.113 715.533 268.633C715.72 268.152 715.814 267.602 715.814 266.98V266.963C715.814 266.225 715.632 265.574 715.269 265.012C714.917 264.438 714.419 263.992 713.775 263.676C713.13 263.348 712.375 263.184 711.507 263.184C710.628 263.184 709.861 263.348 709.205 263.676C708.56 264.004 708.05 264.461 707.675 265.047C707.3 265.621 707.072 266.301 706.99 267.086L706.972 267.262H703.966L703.984 267.033C704.078 265.838 704.412 264.742 704.986 263.746C705.572 262.738 706.416 261.936 707.517 261.338C708.619 260.74 709.99 260.441 711.63 260.441C713.107 260.441 714.402 260.723 715.515 261.285C716.64 261.836 717.513 262.592 718.134 263.553C718.767 264.502 719.083 265.586 719.083 266.805V266.822C719.083 268.193 718.75 269.377 718.082 270.373C717.425 271.357 716.535 272.189 715.41 272.869C714.671 273.303 714.091 273.719 713.669 274.117C713.259 274.516 712.966 274.943 712.791 275.4C712.626 275.857 712.544 276.396 712.544 277.018V278.16H709.468ZM711.015 286.176C710.453 286.176 709.978 285.982 709.591 285.596C709.205 285.209 709.011 284.734 709.011 284.172C709.011 283.598 709.205 283.123 709.591 282.748C709.978 282.361 710.453 282.168 711.015 282.168C711.589 282.168 712.064 282.361 712.439 282.748C712.826 283.123 713.019 283.598 713.019 284.172C713.019 284.734 712.826 285.209 712.439 285.596C712.064 285.982 711.589 286.176 711.015 286.176ZM316.679 329V303.635H326.189C327.818 303.635 329.236 303.951 330.443 304.584C331.662 305.205 332.605 306.084 333.273 307.221C333.941 308.346 334.275 309.67 334.275 311.193V311.229C334.275 312.986 333.818 314.51 332.904 315.799C332.002 317.076 330.76 317.967 329.177 318.471L335.049 329H331.34L325.908 318.963C325.873 318.963 325.838 318.963 325.802 318.963C325.779 318.963 325.75 318.963 325.715 318.963H319.844V329H316.679ZM319.844 316.168H325.908C327.537 316.168 328.791 315.746 329.67 314.902C330.56 314.059 331.006 312.857 331.006 311.299V311.264C331.006 309.752 330.537 308.574 329.599 307.73C328.674 306.875 327.396 306.447 325.767 306.447H319.844V316.168ZM337.185 329V303.635H352.9V306.482H340.349V314.621H352.25V317.434H340.349V326.152H352.9V329H337.185ZM353.982 329L363.422 303.635H365.76V307.432H364.951L357.305 329H353.982ZM358.307 321.74L359.361 319.051H370.611L371.666 321.74H358.307ZM372.65 329L365.021 307.432V303.635H366.551L375.973 329H372.65ZM387.707 329.422C385.363 329.422 383.318 328.883 381.572 327.805C379.838 326.727 378.496 325.209 377.547 323.252C376.598 321.283 376.123 318.969 376.123 316.309V316.291C376.123 313.631 376.598 311.322 377.547 309.365C378.496 307.408 379.838 305.896 381.572 304.83C383.307 303.752 385.352 303.213 387.707 303.213C389.465 303.213 391.064 303.547 392.506 304.215C393.947 304.883 395.148 305.814 396.109 307.01C397.082 308.205 397.727 309.605 398.043 311.211L398.078 311.387H394.879L394.756 311C394.428 309.969 393.936 309.096 393.279 308.381C392.635 307.654 391.844 307.098 390.906 306.711C389.969 306.324 388.902 306.131 387.707 306.131C386.02 306.131 384.549 306.553 383.295 307.396C382.053 308.229 381.086 309.406 380.395 310.93C379.715 312.441 379.375 314.229 379.375 316.291V316.309C379.375 318.359 379.715 320.152 380.395 321.688C381.086 323.211 382.059 324.395 383.312 325.238C384.566 326.082 386.031 326.504 387.707 326.504C388.891 326.504 389.945 326.311 390.871 325.924C391.809 325.537 392.611 324.969 393.279 324.219C393.947 323.457 394.463 322.52 394.826 321.406L394.879 321.248H398.078L398.043 321.424C397.727 323.041 397.088 324.453 396.127 325.66C395.166 326.855 393.965 327.781 392.523 328.438C391.082 329.094 389.477 329.422 387.707 329.422ZM400.742 329V303.635H403.906V314.604H417.828V303.635H420.992V329H417.828V317.451H403.906V329H400.742ZM441.86 329.422C439.457 329.422 437.377 328.889 435.619 327.822C433.873 326.756 432.526 325.244 431.576 323.287C430.627 321.33 430.153 319.01 430.153 316.326V316.291C430.153 313.607 430.627 311.293 431.576 309.348C432.537 307.391 433.891 305.879 435.637 304.812C437.395 303.746 439.469 303.213 441.86 303.213C444.25 303.213 446.319 303.746 448.065 304.812C449.811 305.879 451.158 307.391 452.108 309.348C453.057 311.293 453.531 313.607 453.531 316.291V316.326C453.531 319.01 453.057 321.33 452.108 323.287C451.158 325.244 449.811 326.756 448.065 327.822C446.33 328.889 444.262 329.422 441.86 329.422ZM441.86 326.504C443.606 326.504 445.106 326.088 446.36 325.256C447.625 324.412 448.598 323.229 449.278 321.705C449.957 320.182 450.297 318.389 450.297 316.326V316.291C450.297 314.217 449.951 312.418 449.26 310.895C448.58 309.371 447.608 308.199 446.342 307.379C445.076 306.547 443.582 306.131 441.86 306.131C440.137 306.131 438.637 306.547 437.36 307.379C436.094 308.199 435.115 309.371 434.424 310.895C433.733 312.406 433.387 314.205 433.387 316.291V316.326C433.387 318.4 433.733 320.199 434.424 321.723C435.115 323.246 436.094 324.424 437.36 325.256C438.625 326.088 440.125 326.504 441.86 326.504ZM466.479 329.422C464.381 329.422 462.576 329.029 461.065 328.244C459.565 327.459 458.41 326.369 457.602 324.975C456.793 323.568 456.389 321.945 456.389 320.105V303.635H459.553V319.895C459.553 321.84 460.157 323.428 461.364 324.658C462.582 325.889 464.287 326.504 466.479 326.504C468.682 326.504 470.381 325.889 471.576 324.658C472.772 323.428 473.369 321.84 473.369 319.895V303.635H476.534V320.105C476.534 321.945 476.129 323.568 475.321 324.975C474.524 326.369 473.375 327.459 471.875 328.244C470.375 329.029 468.576 329.422 466.479 329.422ZM486.791 329V306.482H478.793V303.635H497.954V306.482H489.955V329H486.791ZM504.495 329L513.934 303.635H516.272V307.432H515.463L507.817 329H504.495ZM508.819 321.74L509.874 319.051H521.124L522.178 321.74H508.819ZM523.163 329L515.534 307.432V303.635H517.063L526.485 329H523.163ZM528.323 329V303.635H531.399L548.046 327.523L544.038 323.656H545.444V303.635H548.573V329H545.497L528.85 305.111L532.858 308.979H531.452V329H528.323ZM552.415 329V303.635H560.94C563.448 303.635 565.592 304.139 567.374 305.146C569.155 306.143 570.52 307.584 571.469 309.471C572.43 311.346 572.911 313.613 572.911 316.273V316.309C572.911 318.969 572.436 321.248 571.487 323.146C570.538 325.045 569.173 326.498 567.391 327.506C565.61 328.502 563.46 329 560.94 329H552.415ZM555.579 326.152H560.729C562.651 326.152 564.274 325.771 565.598 325.01C566.934 324.248 567.948 323.141 568.639 321.688C569.331 320.223 569.676 318.441 569.676 316.344V316.309C569.676 314.199 569.331 312.412 568.639 310.947C567.948 309.482 566.934 308.375 565.598 307.625C564.274 306.863 562.651 306.482 560.729 306.482H555.579V326.152ZM582.071 329V303.635H585.235V326.152H597.47V329H582.071ZM599.87 329V303.635H615.585V306.482H603.034V314.621H614.935V317.434H603.034V326.152H615.585V329H599.87ZM625.105 329V306.482H617.106V303.635H636.267V306.482H628.269V329H625.105ZM637.56 312.23L639.107 303.635H642.306L639.739 312.23H637.56ZM653.478 329.422C651.65 329.422 650.038 329.141 648.644 328.578C647.261 328.004 646.159 327.189 645.339 326.135C644.53 325.08 644.073 323.832 643.968 322.391L643.95 322.145H647.114L647.15 322.391C647.279 323.234 647.624 323.967 648.187 324.588C648.749 325.197 649.493 325.672 650.419 326.012C651.357 326.34 652.435 326.504 653.654 326.504C654.872 326.504 655.927 326.334 656.818 325.994C657.708 325.643 658.394 325.145 658.874 324.5C659.366 323.855 659.612 323.1 659.612 322.232V322.215C659.612 321.102 659.226 320.211 658.452 319.543C657.679 318.875 656.419 318.348 654.673 317.961L651.861 317.346C649.388 316.795 647.554 315.951 646.359 314.814C645.175 313.666 644.583 312.166 644.583 310.314V310.297C644.595 308.902 644.982 307.678 645.743 306.623C646.505 305.557 647.554 304.725 648.89 304.127C650.237 303.518 651.779 303.213 653.513 303.213C655.165 303.213 656.642 303.512 657.943 304.109C659.243 304.695 660.28 305.516 661.054 306.57C661.839 307.625 662.279 308.844 662.372 310.227L662.39 310.49H659.226L659.191 310.244C659.062 309.377 658.745 308.639 658.241 308.029C657.737 307.42 657.075 306.951 656.255 306.623C655.446 306.295 654.503 306.131 653.425 306.131C652.3 306.131 651.316 306.301 650.472 306.641C649.628 306.98 648.972 307.455 648.503 308.064C648.046 308.674 647.818 309.389 647.818 310.209V310.227C647.818 311.258 648.21 312.107 648.995 312.775C649.78 313.443 650.999 313.959 652.652 314.322L655.464 314.938C658.066 315.512 659.946 316.361 661.107 317.486C662.267 318.6 662.847 320.123 662.847 322.057V322.074C662.847 323.574 662.466 324.875 661.704 325.977C660.954 327.078 659.876 327.928 658.47 328.525C657.075 329.123 655.411 329.422 653.478 329.422ZM671.779 329V303.635H675.435L684.224 325.01H684.329L693.118 303.635H696.775V329H693.822V309.4H692.38L695.808 304.338L685.613 329H682.941L672.745 304.338L676.173 309.4H674.732V329H671.779ZM698.595 329L708.035 303.635H710.372V307.432H709.564L701.917 329H698.595ZM702.919 321.74L703.974 319.051H715.224L716.279 321.74H702.919ZM717.263 329L709.634 307.432V303.635H711.164L720.585 329H717.263ZM725.324 320.422V316.08H725.693L736.451 303.635H740.423L730.333 315.078H730.175L725.324 320.422ZM722.423 329V303.635H725.587V329H722.423ZM737.312 329L728.119 316.906L730.351 314.656L741.355 329H737.312ZM742.964 329V303.635H758.679V306.482H746.129V314.621H758.029V317.434H746.129V326.152H758.679V329H742.964ZM768.086 329V303.635H771.25V329H768.086ZM781.508 329V306.482H773.51V303.635H792.67V306.482H784.672V329H781.508ZM801.232 329V303.635H810.742C812.371 303.635 813.789 303.951 814.996 304.584C816.215 305.205 817.158 306.084 817.826 307.221C818.494 308.346 818.828 309.67 818.828 311.193V311.229C818.828 312.986 818.371 314.51 817.457 315.799C816.555 317.076 815.312 317.967 813.73 318.471L819.602 329H815.893L810.461 318.963C810.426 318.963 810.391 318.963 810.355 318.963C810.332 318.963 810.303 318.963 810.268 318.963H804.396V329H801.232ZM804.396 316.168H810.461C812.09 316.168 813.344 315.746 814.223 314.902C815.113 314.059 815.559 312.857 815.559 311.299V311.264C815.559 309.752 815.09 308.574 814.152 307.73C813.227 306.875 811.949 306.447 810.32 306.447H804.396V316.168ZM821.738 329V303.635H837.453V306.482H824.902V314.621H836.803V317.434H824.902V326.152H837.453V329H821.738ZM838.535 329L847.975 303.635H850.313V307.432H849.504L841.858 329H838.535ZM842.859 321.74L843.914 319.051H855.164L856.219 321.74H842.859ZM857.203 329L849.574 307.432V303.635H851.104L860.526 329H857.203ZM862.364 329V303.635H865.528V326.152H877.762V329H862.364Z" fill="black"/>
</svg>
