<svg width="12" height="82" viewBox="0 0 12 82" fill="none" xmlns="http://www.w3.org/2000/svg">
<path d="M11.2324 77.3863C11.2324 78.2796 11.0228 79.052 10.6035 79.7037C10.1842 80.3554 9.58952 80.859 8.81934 81.2145C8.04915 81.5654 7.13542 81.7408 6.07812 81.7408H6.06445C5.0026 81.7408 4.08659 81.5654 3.31641 81.2145C2.54622 80.859 1.9515 80.3577 1.53223 79.7105C1.11296 79.0589 0.90332 78.2864 0.90332 77.3932C0.90332 76.7005 1.04004 76.0716 1.31348 75.5064C1.58236 74.9368 1.95833 74.4674 2.44141 74.0982C2.91992 73.7291 3.47363 73.4967 4.10254 73.401L4.11621 73.4078V74.6451L4.10254 74.652C3.67871 74.7613 3.31413 74.9459 3.00879 75.2057C2.69889 75.4654 2.45964 75.7822 2.29102 76.1559C2.1224 76.525 2.03809 76.9374 2.03809 77.3932C2.03809 78.0221 2.20215 78.5689 2.53027 79.0338C2.8584 79.4941 3.32324 79.8495 3.9248 80.1002C4.52637 80.3508 5.23958 80.4762 6.06445 80.4762H6.07812C6.89844 80.4762 7.60938 80.3508 8.21094 80.1002C8.8125 79.8495 9.27734 79.4941 9.60547 79.0338C9.93359 78.5689 10.0977 78.0198 10.0977 77.3863C10.0977 76.926 10.0247 76.5091 9.87891 76.1354C9.72852 75.7617 9.5166 75.4472 9.24316 75.192C8.96517 74.9368 8.63704 74.7591 8.25879 74.6588L8.24512 74.6451V73.401H8.25879C8.86035 73.5104 9.38444 73.7473 9.83105 74.1119C10.2731 74.4765 10.6172 74.9391 10.8633 75.4996C11.1094 76.0556 11.2324 76.6845 11.2324 77.3863ZM11.2324 64.3939C11.2324 65.3373 11.0228 66.1462 10.6035 66.8207C10.1797 67.4952 9.5804 68.0147 8.80566 68.3793C8.03092 68.7393 7.11947 68.9193 6.07129 68.9193H6.05762C5.00033 68.9193 4.08659 68.737 3.31641 68.3725C2.54622 68.0033 1.9515 67.4815 1.53223 66.807C1.11296 66.128 0.90332 65.3236 0.90332 64.3939C0.90332 63.4597 1.11296 62.6553 1.53223 61.9809C1.9515 61.3018 2.5485 60.78 3.32324 60.4154C4.09342 60.0508 5.00488 59.8686 6.05762 59.8686H6.07129C7.11947 59.8686 8.03092 60.0508 8.80566 60.4154C9.57585 60.7755 10.1729 61.295 10.5967 61.974C11.0205 62.6485 11.2324 63.4551 11.2324 64.3939ZM10.0977 64.3939C10.0977 63.7195 9.93132 63.1384 9.59863 62.6508C9.26595 62.1632 8.79883 61.7872 8.19727 61.5229C7.59115 61.2585 6.88249 61.1264 6.07129 61.1264H6.05762C5.2373 61.1264 4.52637 61.2585 3.9248 61.5229C3.32324 61.7872 2.8584 62.1632 2.53027 62.6508C2.20215 63.1384 2.03809 63.7195 2.03809 64.3939C2.03809 65.0639 2.20215 65.6426 2.53027 66.1303C2.8584 66.6179 3.32324 66.9962 3.9248 67.265C4.52637 67.5294 5.2373 67.6615 6.05762 67.6615H6.07129C6.88249 67.6615 7.59115 67.5316 8.19727 67.2719C8.79883 67.0121 9.26595 66.6384 9.59863 66.1508C9.93132 65.6632 10.0977 65.0775 10.0977 64.3939ZM11 54.9357H1.13574V53.7395L9.24316 48.0861L8.8125 48.9064V48.2775H1.13574V47.0607H11L11 48.257L2.91992 53.9104L3.35059 53.09V53.7189H11V54.9357ZM11 39.1816H2.24316V42.3604H1.13574L1.13574 34.7725H2.24316L2.24316 37.9512H11V39.1816ZM11 32.0203L1.13574 28.3836L1.13574 27.4402H2.72852V27.8299L11 30.7283V32.0203ZM8.17676 30.3729L7.13086 29.99V25.533L8.17676 25.1502V30.3729ZM11 24.8221L2.72852 27.7205H1.13574V27.1668L11 23.5301V24.8221ZM11.2324 15.5074C11.2324 16.4007 11.0228 17.1731 10.6035 17.8248C10.1842 18.4765 9.58952 18.9801 8.81934 19.3355C8.04915 19.6865 7.13542 19.8619 6.07813 19.8619H6.06445C5.0026 19.8619 4.08659 19.6865 3.31641 19.3355C2.54622 18.9801 1.9515 18.4788 1.53223 17.8316C1.11296 17.1799 0.90332 16.4075 0.90332 15.5143C0.90332 14.8216 1.04004 14.1926 1.31348 13.6275C1.58236 13.0579 1.95833 12.5885 2.44141 12.2193C2.91992 11.8502 3.47363 11.6178 4.10254 11.5221L4.11621 11.5289V12.7662L4.10254 12.773C3.67871 12.8824 3.31413 13.067 3.00879 13.3268C2.69889 13.5865 2.45964 13.9033 2.29102 14.277C2.1224 14.6461 2.03809 15.0585 2.03809 15.5143C2.03809 16.1432 2.20215 16.69 2.53027 17.1549C2.8584 17.6152 3.32324 17.9706 3.9248 18.2213C4.52637 18.4719 5.23958 18.5973 6.06445 18.5973H6.07813C6.89844 18.5973 7.60938 18.4719 8.21094 18.2213C8.8125 17.9706 9.27734 17.6152 9.60547 17.1549C9.93359 16.69 10.0977 16.1409 10.0977 15.5074C10.0977 15.0471 10.0247 14.6301 9.87891 14.2564C9.72852 13.8827 9.5166 13.5683 9.24316 13.3131C8.96517 13.0579 8.63704 12.8801 8.25879 12.7799L8.24512 12.7662V11.5221H8.25879C8.86035 11.6314 9.38444 11.8684 9.83105 12.233C10.2731 12.5976 10.6172 13.0602 10.8633 13.6207C11.1094 14.1767 11.2324 14.8056 11.2324 15.5074ZM11 4.43594H2.24316V7.61465H1.13574L1.13574 0.0267563H2.24316L2.24316 3.20547H11V4.43594Z" fill="#070707"/>
</svg>
