<svg width="1012" height="341" viewBox="0 0 1012 341" fill="none" xmlns="http://www.w3.org/2000/svg">
<path d="M549.9 184.84C542.06 184.747 531.7 182.693 518.82 178.68C518.447 178.68 517.7 178.68 516.58 178.68C515.46 178.773 514.76 178.82 514.48 178.82H498.52C496.653 178.447 495.487 177.56 495.02 176.16C494.553 174.853 494.88 173.593 496 172.38C497.12 171.26 498.52 170.7 500.2 170.7C501.973 170.7 504.633 171.587 508.18 173.36C512.567 175.507 515.087 176.673 515.74 176.86C515.833 176.86 515.973 176.86 516.16 176.86C516.347 176.953 516.487 177 516.58 177C517.98 177.373 519.1 177.56 519.94 177.56C525.26 177.373 530.907 175.133 536.88 170.84C540.707 168.227 544.813 164.68 549.2 160.2C553.68 155.72 557.32 151.8 560.12 148.44C562.92 145.08 567.353 139.62 573.42 132.06C584.06 118.807 590.687 110.5 593.3 107.14C599.273 99.4867 606.367 91.46 614.58 83.06C622.327 75.3133 629.933 68.92 637.4 63.88C630.493 55.2 619.527 50.58 604.5 50.02C594.14 49.6467 583.453 51.2333 572.44 54.78C561.613 58.3267 551.86 63.04 543.18 68.92C530.207 77.6 519.053 88.0067 509.72 100.14C500.48 112.18 495.067 123.1 493.48 132.9C492.827 135.607 492.733 138.5 493.2 141.58C493.76 144.567 494.6 147.367 495.72 149.98C496.933 152.593 499.033 154.74 502.02 156.42C505.1 158.1 508.833 158.94 513.22 158.94C519.66 158.94 526.613 156.887 534.08 152.78C541.733 148.58 548.313 142.653 553.82 135C559.42 127.347 562.22 119.18 562.22 110.5C562.22 103.407 559.187 99.4867 553.12 98.74L553.96 98.04C560.027 99.16 563.06 103.313 563.06 110.5C563.06 119.273 560.213 127.533 554.52 135.28C548.733 143.12 542.06 149.187 534.5 153.48C526.753 157.68 519.613 159.78 513.08 159.78C503.56 159.78 497.073 156.373 493.62 149.56C490.073 142.56 489.747 133.6 492.64 122.68C496.933 108.867 504.727 96.1267 516.02 84.46C527.127 72.98 540.613 63.9267 556.48 57.3C572.347 50.6733 588.447 47.8733 604.78 48.9C619.62 49.8333 631.333 54.3133 639.92 62.34C651.307 55.34 662.32 51.84 672.96 51.84C683.413 51.84 690.787 56.2267 695.08 65L694.8 65.7C690.693 57.02 683.6 52.68 673.52 52.68C662.227 52.68 651.213 56.0867 640.48 62.9C645.987 68.3133 649.72 74.8467 651.68 82.5C653.64 90.1533 653.873 98.1333 652.38 106.44C649.767 121.187 642.627 135 630.96 147.88C625.08 154.413 618.173 160.433 610.24 165.94C602.4 171.447 593.207 175.88 582.66 179.24C572.113 182.6 561.193 184.467 549.9 184.84ZM549.76 184C559.84 183.813 570.06 181.247 580.42 176.3C591.153 171.353 600.767 164.913 609.26 156.98C617.94 148.953 625.407 139.9 631.66 129.82C638.1 119.367 642.207 109.193 643.98 99.3C646.593 85.1133 644.587 73.54 637.96 64.58L632.92 68.36C622.84 75.64 614.627 85.16 608.28 96.92C605.573 101.773 602.773 107.047 599.88 112.74C592.88 127.02 585.6 138.687 578.04 147.74C571.32 155.953 562.827 162.953 552.56 168.74C542.48 174.247 532.12 177.513 521.48 178.54C532.213 181.713 541.64 183.533 549.76 184Z" fill="white"/>
<path d="M642.092 170V71.3574H704.709V84.6191H657.404V113.33H702.18V126.182H657.404V156.738H704.709V170H642.092ZM750.001 171.641C742.618 171.641 736.147 170.524 730.587 168.291C725.073 166.058 720.698 162.868 717.462 158.721C714.226 154.528 712.404 149.538 711.993 143.75L711.925 142.725H726.896L727.032 143.613C727.488 146.621 728.741 149.242 730.792 151.475C732.889 153.662 735.623 155.348 738.995 156.533C742.368 157.718 746.241 158.311 750.616 158.311C755.037 158.311 758.842 157.695 762.032 156.465C765.223 155.234 767.683 153.48 769.415 151.201C771.193 148.923 772.081 146.257 772.081 143.203V143.135C772.081 139.17 770.646 136.025 767.775 133.701C764.949 131.331 760.255 129.44 753.693 128.027L742.96 125.771C733.299 123.721 726.098 120.439 721.359 115.928C716.619 111.37 714.249 105.446 714.249 98.1543V98.0859C714.295 92.4805 715.844 87.5586 718.898 83.3203C721.951 79.0365 726.167 75.7096 731.544 73.3398C736.922 70.9245 743.097 69.7168 750.07 69.7168C756.905 69.7168 762.944 70.8789 768.185 73.2031C773.426 75.5273 777.573 78.7858 780.626 82.9785C783.68 87.1257 785.389 91.9792 785.753 97.5391L785.821 98.6328H770.851L770.714 97.7441C770.304 94.6452 769.165 92.002 767.296 89.8145C765.473 87.627 763.081 85.9635 760.118 84.8242C757.156 83.6393 753.715 83.0469 749.796 83.0469C745.74 83.0469 742.208 83.6621 739.2 84.8926C736.193 86.0775 733.868 87.7409 732.228 89.8828C730.587 92.0247 729.767 94.554 729.767 97.4707V97.5391C729.767 101.23 731.225 104.238 734.142 106.562C737.058 108.887 741.593 110.71 747.745 112.031L758.478 114.355C768.686 116.497 776.092 119.779 780.695 124.199C785.343 128.574 787.667 134.567 787.667 142.178V142.246C787.667 148.262 786.14 153.48 783.087 157.9C780.079 162.275 775.75 165.671 770.099 168.086C764.493 170.456 757.794 171.641 750.001 171.641ZM797.207 170V71.3574H812.52V170H797.207ZM868.955 171.641C859.567 171.641 851.432 169.567 844.55 165.42C837.669 161.227 832.337 155.303 828.554 147.646C824.817 139.945 822.949 130.807 822.949 120.234V120.166C822.949 109.775 824.817 100.82 828.554 93.3008C832.291 85.7812 837.601 79.9707 844.482 75.8691C851.364 71.7676 859.476 69.7168 868.818 69.7168C876.474 69.7168 883.173 71.084 888.916 73.8184C894.658 76.5072 899.352 80.1986 902.998 84.8926C906.643 89.5866 909.15 94.9186 910.517 100.889L910.791 102.051H895L894.726 101.299C892.675 95.6022 889.44 91.1816 885.019 88.0371C880.644 84.8926 875.244 83.3203 868.818 83.3203C862.574 83.3203 857.174 84.7786 852.617 87.6953C848.105 90.612 844.642 94.8275 842.226 100.342C839.811 105.811 838.603 112.396 838.603 120.098V120.166C838.603 128.005 839.834 134.772 842.295 140.469C844.801 146.12 848.333 150.472 852.89 153.525C857.448 156.533 862.848 158.037 869.091 158.037C874.423 158.037 879.117 156.989 883.173 154.893C887.275 152.796 890.465 149.88 892.744 146.143C895.068 142.36 896.253 137.985 896.298 133.018V131.377H870.459V118.867H911.474V128.984C911.474 137.871 909.788 145.505 906.416 151.885C903.043 158.265 898.19 163.164 891.855 166.582C885.52 169.954 877.887 171.641 868.955 171.641ZM922.245 170V71.3574H936.395L997.098 158.516L980.897 144.16H987.528V71.3574H1002.77V170H988.622L927.919 82.7051L944.12 96.9922H937.489V170H922.245Z" fill="white"/>
<path d="M137.08 108.26L138.48 107.42C141.093 105.927 143.1 106.067 144.5 107.84C145.713 109.333 145.573 110.733 144.08 112.04C143.427 112.507 143.053 112.74 142.96 112.74C141.653 113.393 139.647 114.233 136.94 115.26C134.513 116.1 132.46 116.987 130.78 117.92C126.767 120.067 122.893 123.753 119.16 128.98C114.307 135.607 109.08 145.267 103.48 157.96C97.7867 170.747 93.26 179.893 89.9 185.4C101.66 189.227 111.367 191.14 119.02 191.14C126.86 191.14 135.213 188.247 144.08 182.46L144.22 183.3C135.167 189.087 126.767 191.98 119.02 191.98C110.713 191.98 100.867 190.02 89.48 186.1L86.54 190.44C78.5133 201.36 69.0867 209.573 58.26 215.08C47.7133 220.493 38.1933 223.2 29.7 223.2H29.28C20.4133 223.2 13.4133 221.1 8.28 216.9C3.14667 212.793 0.579999 207.38 0.579999 200.66C0.579999 194.78 2.77333 189.647 7.16 185.26C15.1867 176.953 26.8067 172.8 42.02 172.8C50.98 172.8 63.0667 175.6 78.28 181.2C84.0667 173.92 90.5533 165.333 97.74 155.44C105.767 144.427 112.207 135.933 117.06 129.96C94.2867 150.867 77.58 161.32 66.94 161.32C61.8067 161.32 57.7 160.247 54.62 158.1C51.54 155.86 49.58 152.967 48.74 149.42C47.9933 145.78 47.8533 141.907 48.32 137.8C48.88 133.693 50 129.447 51.68 125.06C53.92 119.273 57.0467 113.487 61.06 107.7C59.8467 105.367 59.24 102.753 59.24 99.86C59.24 91.8333 63.1133 83.9467 70.86 76.2C78.6067 68.5467 86.3067 64.72 93.96 64.72C94.6133 64.72 94.5667 65.0467 93.82 65.7C86.6333 65.7 79.1667 69.4333 71.42 76.9C63.86 84.2733 60.08 91.9267 60.08 99.86C60.08 102.66 60.5467 105.04 61.48 107C72.8667 90.9467 88.2667 77.2267 107.68 65.84C127.373 54.4533 145.433 48.76 161.86 48.76H164.1C167.74 48.76 170.633 49.74 172.78 51.7C175.02 53.5667 176.14 56.0867 176.14 59.26C176.14 66.1667 172.873 73.4467 166.34 81.1C160.087 88.4733 152.293 95.1 142.96 100.98C134.093 106.487 124.573 111.153 114.4 114.98C104.6 118.713 96.2933 120.58 89.48 120.58C81.92 120.58 75.5733 119.273 70.44 116.66C64.84 124.687 60.5467 132.433 57.56 139.9C52.24 153.527 55.46 160.34 67.22 160.34C78.42 160.34 96.5733 148.393 121.68 124.5L123.22 122.68C130.033 114.747 134.653 109.94 137.08 108.26ZM163.82 49.74H162.56C149.307 49.74 133.72 56.46 115.8 69.9C97.9733 83.1533 82.9933 98.5067 70.86 115.96C75.7133 118.48 81.92 119.74 89.48 119.74C96.2 119.74 104.367 117.92 113.98 114.28C123.873 110.453 133.3 105.787 142.26 100.28C151.407 94.68 159.2 88.1467 165.64 80.68C172.08 73.12 175.3 65.98 175.3 59.26C175.3 56.2733 174.227 53.94 172.08 52.26C170.027 50.58 167.273 49.74 163.82 49.74ZM23.54 221.38H23.82C32.0333 221.38 40.48 218.067 49.16 211.44C57.84 204.813 67.36 194.967 77.72 181.9C62.88 176.393 50.98 173.64 42.02 173.64C35.6733 173.64 29.42 174.573 23.26 176.44C17.1933 178.307 12.06 181.34 7.86 185.54C3.56667 189.833 1.42 194.873 1.42 200.66C1.42 206.633 3.56667 211.58 7.86 215.5C12.2467 219.42 17.4733 221.38 23.54 221.38Z" fill="white"/>
<path d="M139.092 170V71.3574H177.441C184.141 71.3574 189.951 72.5879 194.873 75.0488C199.795 77.5098 203.577 80.9961 206.221 85.5078C208.91 90.0195 210.254 95.3743 210.254 101.572V101.709C210.254 108.408 208.545 114.264 205.127 119.277C201.755 124.29 197.106 127.799 191.182 129.805L213.262 170H195.557L175.459 132.197C175.277 132.197 175.117 132.197 174.98 132.197C174.889 132.197 174.753 132.197 174.57 132.197H154.404V170H139.092ZM154.404 119.551H175.938C181.816 119.551 186.374 118.024 189.609 114.971C192.845 111.872 194.463 107.497 194.463 101.846V101.709C194.463 96.2858 192.754 92.0247 189.336 88.9258C185.964 85.7812 181.338 84.209 175.459 84.209H154.404V119.551ZM213.573 170L249.462 71.3574H261.904V87.6953H257.597L229.706 170H213.573ZM231.005 143.34L235.448 131.035H280.019L284.462 143.34H231.005ZM285.761 170L257.939 87.6953V71.3574H266.073L301.894 170H285.761ZM316.219 136.299V123.447H341.512C348.12 123.447 353.247 121.738 356.893 118.32C360.584 114.857 362.43 110.072 362.43 103.965V103.828C362.43 97.6302 360.584 92.8223 356.893 89.4043C353.247 85.9863 348.12 84.2773 341.512 84.2773H316.219V71.3574H345.34C351.812 71.3574 357.485 72.7246 362.362 75.459C367.284 78.1478 371.135 81.9303 373.914 86.8066C376.694 91.6374 378.084 97.2656 378.084 103.691V103.828C378.084 110.254 376.694 115.928 373.914 120.85C371.135 125.726 367.284 129.531 362.362 132.266C357.485 134.954 351.812 136.299 345.34 136.299H316.219ZM308.563 170V71.3574H323.875V170H308.563ZM387.351 170V71.3574H402.664V113.057H453.25V71.3574H468.63V170H453.25V126.318H402.664V170H387.351Z" fill="white"/>
<path d="M325.725 308.641C318.342 308.641 311.87 307.524 306.311 305.291C300.796 303.058 296.421 299.868 293.186 295.721C289.95 291.528 288.127 286.538 287.717 280.75L287.648 279.725H302.619L302.756 280.613C303.212 283.621 304.465 286.242 306.516 288.475C308.612 290.662 311.346 292.348 314.719 293.533C318.091 294.718 321.965 295.311 326.34 295.311C330.76 295.311 334.566 294.695 337.756 293.465C340.946 292.234 343.407 290.48 345.139 288.201C346.916 285.923 347.805 283.257 347.805 280.203V280.135C347.805 276.17 346.369 273.025 343.498 270.701C340.673 268.331 335.979 266.44 329.416 265.027L318.684 262.771C309.022 260.721 301.822 257.439 297.082 252.928C292.342 248.37 289.973 242.446 289.973 235.154V235.086C290.018 229.48 291.568 224.559 294.621 220.32C297.674 216.036 301.89 212.71 307.268 210.34C312.645 207.924 318.82 206.717 325.793 206.717C332.629 206.717 338.667 207.879 343.908 210.203C349.149 212.527 353.296 215.786 356.35 219.979C359.403 224.126 361.112 228.979 361.477 234.539L361.545 235.633H346.574L346.438 234.744C346.027 231.645 344.888 229.002 343.02 226.814C341.197 224.627 338.804 222.964 335.842 221.824C332.88 220.639 329.439 220.047 325.52 220.047C321.464 220.047 317.932 220.662 314.924 221.893C311.916 223.077 309.592 224.741 307.951 226.883C306.311 229.025 305.49 231.554 305.49 234.471V234.539C305.49 238.23 306.949 241.238 309.865 243.562C312.782 245.887 317.316 247.71 323.469 249.031L334.201 251.355C344.41 253.497 351.815 256.779 356.418 261.199C361.066 265.574 363.391 271.567 363.391 279.178V279.246C363.391 285.262 361.864 290.48 358.811 294.9C355.803 299.275 351.473 302.671 345.822 305.086C340.217 307.456 333.518 308.641 325.725 308.641ZM394.601 307V221.619H364.454V208.357H440.128V221.619H409.982V307H394.601ZM488.428 308.641C480.179 308.641 473.07 307.137 467.1 304.129C461.13 301.076 456.527 296.814 453.291 291.346C450.056 285.877 448.438 279.542 448.438 272.342V208.357H463.75V271.111C463.75 278.221 465.892 283.986 470.176 288.406C474.506 292.827 480.59 295.037 488.428 295.037C496.312 295.037 502.373 292.827 506.612 288.406C510.85 283.986 512.969 278.221 512.969 271.111V208.357H528.35V272.342C528.35 279.542 526.732 285.877 523.496 291.346C520.306 296.769 515.726 301.007 509.756 304.061C503.786 307.114 496.677 308.641 488.428 308.641ZM542.265 307V208.357H577.06C586.858 208.357 595.221 210.294 602.148 214.168C609.121 217.996 614.453 223.556 618.144 230.848C621.881 238.139 623.75 246.98 623.75 257.371V257.508C623.75 267.898 621.904 276.808 618.212 284.236C614.521 291.619 609.189 297.27 602.216 301.189C595.289 305.063 586.904 307 577.06 307H542.265ZM557.578 293.738H575.625C582.597 293.738 588.499 292.348 593.33 289.568C598.16 286.788 601.829 282.71 604.336 277.332C606.842 271.954 608.095 265.392 608.095 257.645V257.508C608.095 249.806 606.819 243.289 604.267 237.957C601.761 232.579 598.092 228.523 593.261 225.789C588.476 223.009 582.597 221.619 575.625 221.619H557.578V293.738ZM634.179 307V208.357H649.491V307H634.179ZM706.199 308.641C696.674 308.641 688.449 306.59 681.521 302.488C674.594 298.341 669.262 292.462 665.525 284.852C661.788 277.195 659.92 268.149 659.92 257.713V257.576C659.92 247.14 661.788 238.117 665.525 230.506C669.308 222.895 674.663 217.039 681.59 212.938C688.517 208.79 696.72 206.717 706.199 206.717C715.633 206.717 723.813 208.79 730.74 212.938C737.667 217.085 742.999 222.964 746.736 230.574C750.473 238.139 752.342 247.14 752.342 257.576V257.713C752.342 268.149 750.473 277.173 746.736 284.783C742.999 292.394 737.667 298.273 730.74 302.42C723.859 306.567 715.678 308.641 706.199 308.641ZM706.199 295.037C712.488 295.037 717.911 293.51 722.469 290.457C727.026 287.404 730.535 283.074 732.996 277.469C735.457 271.863 736.688 265.278 736.688 257.713V257.576C736.688 249.965 735.434 243.38 732.928 237.82C730.467 232.215 726.935 227.908 722.332 224.9C717.775 221.847 712.397 220.32 706.199 220.32C699.956 220.32 694.533 221.824 689.93 224.832C685.372 227.84 681.84 232.146 679.334 237.752C676.827 243.312 675.574 249.92 675.574 257.576V257.713C675.574 265.324 676.827 271.932 679.334 277.537C681.84 283.143 685.372 287.472 689.93 290.525C694.487 293.533 699.91 295.037 706.199 295.037Z" fill="white"/>
</svg>
