<svg width="14" height="352" viewBox="0 0 14 352" fill="none" xmlns="http://www.w3.org/2000/svg">
<path d="M2.76758 5.3457C2.76758 4.4388 2.97721 3.65039 3.39648 2.98047C3.82031 2.31055 4.4196 1.79102 5.19434 1.42188C5.96908 1.05729 6.88053 0.875 7.92871 0.875H7.94238C8.98145 0.875 9.88607 1.05957 10.6562 1.42871C11.431 1.79785 12.0303 2.31738 12.4541 2.9873C12.8825 3.66178 13.0967 4.44792 13.0967 5.3457C13.0967 6.07487 12.9668 6.72428 12.707 7.29395C12.4518 7.86816 12.0918 8.33984 11.627 8.70898C11.1621 9.08268 10.6175 9.33333 9.99316 9.46094L9.9248 9.47461V8.23047L9.99316 8.20996C10.6312 8.00944 11.1188 7.66536 11.4561 7.17773C11.7933 6.6901 11.9619 6.07943 11.9619 5.3457C11.9619 4.69401 11.7956 4.12663 11.4629 3.64355C11.1348 3.16504 10.6699 2.79362 10.0684 2.5293C9.4668 2.26497 8.75814 2.13281 7.94238 2.13281H7.92871C7.10384 2.13281 6.38835 2.2627 5.78223 2.52246C5.18066 2.78678 4.71582 3.1582 4.3877 3.63672C4.06413 4.11979 3.90234 4.69173 3.90234 5.35254C3.90234 5.94043 4.01855 6.4554 4.25098 6.89746C4.48796 7.34408 4.81608 7.69043 5.23535 7.93652C5.65462 8.18262 6.14225 8.30566 6.69824 8.30566H6.9375V5.53711H8.01758V9.53613H6.81445C6.00326 9.53613 5.2946 9.36068 4.68848 9.00977C4.08236 8.66341 3.61068 8.17578 3.27344 7.54688C2.9362 6.92253 2.76758 6.1888 2.76758 5.3457ZM3 14.5168H12.8643V18.2834C12.8643 18.9169 12.7412 19.4683 12.4951 19.9377C12.2536 20.4117 11.9141 20.7785 11.4766 21.0383C11.0391 21.298 10.5241 21.4279 9.93164 21.4279H9.91797C9.23438 21.4279 8.64193 21.2525 8.14062 20.9016C7.63932 20.5507 7.29069 20.0653 7.09473 19.4455L3 21.7287V20.2863L6.90332 18.174C6.90332 18.1649 6.90332 18.1535 6.90332 18.1398C6.90332 18.1262 6.90332 18.1148 6.90332 18.1057V15.7473H3V14.5168ZM7.99707 15.7473V18.174C7.99707 18.8075 8.15885 19.2951 8.48242 19.6369C8.81055 19.9833 9.27539 20.1564 9.87695 20.1564H9.89062C10.4785 20.1564 10.9388 19.9764 11.2715 19.6164C11.6042 19.2564 11.7705 18.7574 11.7705 18.1193V15.7473H7.99707ZM3 25.6771L12.8643 29.3139V30.2572H11.2715V29.8676L3 26.9691V25.6771ZM5.82324 27.3246L6.86914 27.7074V32.1645L5.82324 32.5473V27.3246ZM3 32.8754L11.2715 29.977H12.8643V30.5307L3 34.1674V32.8754ZM6.52051 39.3121H7.61426V42.1012C7.61426 42.8076 7.79655 43.3544 8.16113 43.7418C8.53027 44.1292 9.03841 44.3229 9.68555 44.3229H9.69922C10.3509 44.3229 10.859 44.1292 11.2236 43.7418C11.5882 43.3544 11.7705 42.8076 11.7705 42.1012V39.3121H12.8643V42.4156C12.8643 43.0354 12.7321 43.5823 12.4678 44.0563C12.2035 44.5302 11.8343 44.9016 11.3604 45.1705C10.8864 45.4439 10.3372 45.5807 9.71289 45.5807H9.69922C9.07487 45.5807 8.52344 45.4439 8.04492 45.1705C7.56641 44.9016 7.19271 44.5302 6.92383 44.0563C6.65495 43.5823 6.52051 43.0354 6.52051 42.4156V39.3121ZM3 38.6969H12.8643V39.9273H3V38.6969ZM3 50.3973H12.8643V51.6277H8.59863V57.0418H12.8643V58.2723H3V57.0418H7.49121V51.6277H3V50.3973ZM3 63.5879H12.8643V64.8184H3V63.5879ZM2.76758 74.1057C2.76758 73.2124 2.97721 72.44 3.39648 71.7883C3.81576 71.1366 4.41048 70.633 5.18066 70.2775C5.95085 69.9266 6.86458 69.7512 7.92188 69.7512H7.93555C8.9974 69.7512 9.91341 69.9266 10.6836 70.2775C11.4538 70.633 12.0485 71.1343 12.4678 71.7814C12.887 72.4331 13.0967 73.2056 13.0967 74.0988C13.0967 74.7915 12.96 75.4204 12.6865 75.9855C12.4176 76.5552 12.0417 77.0246 11.5586 77.3938C11.0801 77.7629 10.5264 77.9953 9.89746 78.091L9.88379 78.0842V76.8469L9.89746 76.84C10.3213 76.7307 10.6859 76.5461 10.9912 76.2863C11.3011 76.0266 11.5404 75.7098 11.709 75.3361C11.8776 74.967 11.9619 74.5546 11.9619 74.0988C11.9619 73.4699 11.7979 72.923 11.4697 72.4582C11.1416 71.9979 10.6768 71.6425 10.0752 71.3918C9.47363 71.1411 8.76042 71.0158 7.93555 71.0158H7.92188C7.10156 71.0158 6.39062 71.1411 5.78906 71.3918C5.1875 71.6425 4.72266 71.9979 4.39453 72.4582C4.06641 72.923 3.90234 73.4722 3.90234 74.1057C3.90234 74.566 3.97526 74.9829 4.12109 75.3566C4.27148 75.7303 4.4834 76.0448 4.75684 76.3C5.03483 76.5552 5.36296 76.7329 5.74121 76.8332L5.75488 76.8469V78.091H5.74121C5.13965 77.9816 4.61556 77.7447 4.16895 77.3801C3.72689 77.0155 3.38281 76.5529 3.13672 75.9924C2.89062 75.4364 2.76758 74.8075 2.76758 74.1057ZM3 89.693H12.8643V93.0768C12.8643 94.052 12.6683 94.886 12.2764 95.5787C11.889 96.276 11.3285 96.8092 10.5947 97.1783C9.861 97.5475 8.97689 97.732 7.94238 97.732H7.92871C6.89421 97.732 6.00781 97.5475 5.26953 97.1783C4.53581 96.8092 3.97298 96.2783 3.58105 95.5855C3.19368 94.8928 3 94.0566 3 93.0768V89.693ZM4.10742 90.9234V92.9947C4.10742 93.7285 4.25781 94.3551 4.55859 94.8746C4.85938 95.3941 5.2946 95.7906 5.86426 96.0641C6.43392 96.3375 7.11751 96.4742 7.91504 96.4742H7.92871C8.73079 96.4742 9.41667 96.3352 9.98633 96.0572C10.5605 95.7838 10.998 95.3873 11.2988 94.8678C11.6042 94.3482 11.7568 93.7239 11.7568 92.9947V90.9234H4.10742ZM3 102.665H12.8643V108.776H11.7568V103.895H8.5918V108.523H7.49805V103.895H4.10742V108.776H3V102.665ZM2.76758 117.038C2.76758 116.318 2.88379 115.689 3.11621 115.151C3.35319 114.618 3.67676 114.194 4.08691 113.88C4.50163 113.57 4.97559 113.39 5.50879 113.34L5.58398 113.333V114.563L5.50879 114.57C5.18066 114.602 4.89583 114.728 4.6543 114.946C4.41732 115.17 4.23275 115.466 4.10059 115.835C3.96842 116.209 3.90234 116.632 3.90234 117.106C3.90234 117.553 3.97298 117.95 4.11426 118.296C4.26009 118.647 4.46061 118.923 4.71582 119.123C4.97103 119.324 5.26497 119.424 5.59766 119.424H5.60449C6.01465 119.424 6.35872 119.273 6.63672 118.973C6.91927 118.672 7.13574 118.182 7.28613 117.503L7.52539 116.409C7.74414 115.42 8.08138 114.7 8.53711 114.249C8.9974 113.802 9.58529 113.579 10.3008 113.579H10.3076C10.8545 113.584 11.3376 113.732 11.7568 114.023C12.1761 114.32 12.5042 114.728 12.7412 115.247C12.9782 115.771 13.0967 116.373 13.0967 117.052C13.0967 117.708 12.9782 118.289 12.7412 118.795C12.5088 119.301 12.1943 119.702 11.7979 119.998C11.4014 120.299 10.957 120.465 10.4648 120.497L10.3691 120.504V119.273L10.458 119.26C10.7497 119.214 11.0072 119.096 11.2305 118.904C11.4583 118.713 11.6383 118.458 11.7705 118.139C11.9027 117.82 11.9665 117.446 11.9619 117.018C11.9619 116.607 11.8981 116.238 11.7705 115.91C11.6429 115.582 11.4583 115.32 11.2168 115.124C10.9798 114.933 10.6882 114.837 10.3418 114.837H10.335C9.94303 114.837 9.61263 114.983 9.34375 115.274C9.07487 115.566 8.86751 116.047 8.72168 116.717L8.47559 117.811C8.24772 118.84 7.91732 119.576 7.48438 120.019C7.05143 120.461 6.47949 120.682 5.76855 120.682H5.76172C5.14648 120.682 4.61556 120.531 4.16895 120.23C3.72233 119.93 3.37598 119.506 3.12988 118.959C2.88835 118.412 2.76758 117.772 2.76758 117.038ZM3 125.532H12.8643V126.763H3V125.532ZM2.76758 136.166C2.76758 135.26 2.97721 134.471 3.39648 133.801C3.82031 133.131 4.4196 132.612 5.19434 132.243C5.96908 131.878 6.88053 131.696 7.92871 131.696H7.94238C8.98145 131.696 9.88607 131.88 10.6562 132.249C11.431 132.619 12.0303 133.138 12.4541 133.808C12.8825 134.482 13.0967 135.269 13.0967 136.166C13.0967 136.896 12.9668 137.545 12.707 138.115C12.4518 138.689 12.0918 139.161 11.627 139.53C11.1621 139.903 10.6175 140.154 9.99316 140.282L9.9248 140.295V139.051L9.99316 139.031C10.6312 138.83 11.1188 138.486 11.4561 137.998C11.7933 137.511 11.9619 136.9 11.9619 136.166C11.9619 135.515 11.7956 134.947 11.4629 134.464C11.1348 133.986 10.6699 133.614 10.0684 133.35C9.4668 133.086 8.75814 132.954 7.94238 132.954H7.92871C7.10384 132.954 6.38835 133.083 5.78223 133.343C5.18066 133.607 4.71582 133.979 4.3877 134.457C4.06413 134.941 3.90234 135.512 3.90234 136.173C3.90234 136.761 4.01855 137.276 4.25098 137.718C4.48796 138.165 4.81608 138.511 5.23535 138.757C5.65462 139.003 6.14225 139.126 6.69824 139.126H6.9375V136.358H8.01758V140.357H6.81445C6.00326 140.357 5.2946 140.181 4.68848 139.83C4.08236 139.484 3.61068 138.996 3.27344 138.368C2.9362 137.743 2.76758 137.01 2.76758 136.166ZM3 145.337H12.8643V146.534L4.75684 152.187L5.1875 151.367V151.996H12.8643V153.212H3V152.016L11.0801 146.363L10.6494 147.183V146.554H3V145.337ZM0.491211 158.077L4.38086 158.672V160.032L0.491211 158.959V158.077ZM2.76758 176.132C2.76758 175.316 2.92025 174.614 3.22559 174.027C3.53092 173.443 3.95475 172.994 4.49707 172.68C5.04395 172.365 5.67513 172.208 6.39062 172.208H12.8643V173.439H6.47266C5.71615 173.439 5.09863 173.673 4.62012 174.143C4.1416 174.617 3.90234 175.28 3.90234 176.132C3.90234 176.989 4.1416 177.65 4.62012 178.114C5.09863 178.579 5.71615 178.812 6.47266 178.812H12.8643V180.042H6.39062C5.67513 180.042 5.04395 179.885 4.49707 179.571C3.95475 179.261 3.53092 178.814 3.22559 178.231C2.92025 177.647 2.76758 176.948 2.76758 176.132ZM3 185.344H12.8643V186.575H3V185.344ZM13.2949 194.891L0.539062 191.774V190.632L13.2949 193.75V194.891ZM2.76758 202.866C2.76758 202.05 2.92025 201.348 3.22559 200.761C3.53092 200.177 3.95475 199.728 4.49707 199.414C5.04395 199.099 5.67513 198.942 6.39062 198.942H12.8643V200.173H6.47266C5.71615 200.173 5.09863 200.407 4.62012 200.877C4.1416 201.351 3.90234 202.014 3.90234 202.866C3.90234 203.723 4.1416 204.384 4.62012 204.848C5.09863 205.313 5.71615 205.546 6.47266 205.546H12.8643V206.776H6.39062C5.67513 206.776 5.04395 206.619 4.49707 206.304C3.95475 205.995 3.53092 205.548 3.22559 204.965C2.92025 204.381 2.76758 203.682 2.76758 202.866ZM3 211.429L8.38672 215.086L7.43652 214.792H7.9834L12.8643 211.47V212.953L8.89258 215.592V216.152L8.45508 215.339L12.8643 218.299V219.7L7.92188 216.289H7.375L8.3252 215.995L3 219.625V218.148L6.9375 215.523V214.963L7.36816 215.776L3 212.823V211.429ZM0.491211 223.929L4.38086 224.524V225.884L0.491211 224.811V223.929ZM3 245.04L8.42773 240.084C8.80143 239.742 9.12728 239.468 9.40527 239.263C9.68783 239.063 9.94531 238.919 10.1777 238.833C10.4102 238.746 10.6449 238.703 10.8818 238.703H10.8955C11.3148 238.703 11.6908 238.812 12.0234 239.031C12.3561 239.25 12.6182 239.548 12.8096 239.926C13.001 240.309 13.0967 240.74 13.0967 241.218C13.0967 241.706 13.001 242.139 12.8096 242.517C12.6182 242.895 12.3561 243.192 12.0234 243.406C11.6908 243.625 11.3102 243.734 10.8818 243.734H10.8682C10.3669 243.734 9.91113 243.561 9.50098 243.214C9.09082 242.873 8.66699 242.273 8.22949 241.417L8.92676 240.754C9.27311 241.446 9.58984 241.922 9.87695 242.182C10.1641 242.447 10.4808 242.579 10.8271 242.579H10.8408C11.096 242.579 11.3193 242.522 11.5107 242.408C11.7021 242.294 11.8503 242.134 11.9551 241.929C12.0645 241.729 12.1191 241.494 12.1191 241.225C12.1191 240.965 12.0645 240.733 11.9551 240.528C11.8457 240.327 11.693 240.168 11.4971 240.049C11.3057 239.935 11.0824 239.879 10.8271 239.879H10.8135C10.6357 239.879 10.458 239.917 10.2803 239.995C10.1071 240.072 9.90885 240.198 9.68555 240.371C9.4668 240.548 9.19792 240.785 8.87891 241.082L3.00684 246.585H3V245.04ZM2.81543 240.938C2.81543 240.286 2.93392 239.708 3.1709 239.202C3.41243 238.7 3.74512 238.309 4.16895 238.026C4.59277 237.743 5.07812 237.602 5.625 237.602H5.63867C6.23568 237.602 6.76204 237.766 7.21777 238.094C7.67806 238.422 8.07227 238.919 8.40039 239.585L8.66699 240.125L7.92188 240.808L7.67578 240.296C7.45247 239.826 7.1722 239.464 6.83496 239.209C6.49772 238.958 6.1263 238.833 5.7207 238.833H5.70703C5.34245 238.833 5.01888 238.926 4.73633 239.113C4.45833 239.3 4.24186 239.559 4.08691 239.892C3.93197 240.225 3.85449 240.61 3.85449 241.047C3.85449 241.453 3.90918 241.822 4.01855 242.155C4.12793 242.488 4.28288 242.784 4.4834 243.044C4.68848 243.303 4.93001 243.529 5.20801 243.72C5.60905 243.994 6.07617 244.197 6.60938 244.329C7.14714 244.465 7.71908 244.534 8.3252 244.534H8.49609V245.682H8.31836C7.52539 245.682 6.79167 245.589 6.11719 245.402C5.44271 245.215 4.85938 244.926 4.36719 244.534C3.87956 244.146 3.49902 243.654 3.22559 243.057C2.95215 242.465 2.81543 241.758 2.81543 240.938ZM3 257.578H12.8643V263.566H11.7568V258.809H8.36621V263.177H7.27246V258.809H3V257.578ZM3 268.39H12.8643V272.156C12.8643 272.79 12.7412 273.341 12.4951 273.811C12.2536 274.285 11.9141 274.652 11.4766 274.911C11.0391 275.171 10.5241 275.301 9.93164 275.301H9.91797C9.23438 275.301 8.64193 275.126 8.14062 274.775C7.63932 274.424 7.29069 273.938 7.09473 273.319L3 275.602V274.159L6.90332 272.047C6.90332 272.038 6.90332 272.027 6.90332 272.013C6.90332 271.999 6.90332 271.988 6.90332 271.979V269.62H3V268.39ZM7.99707 269.62V272.047C7.99707 272.681 8.15885 273.168 8.48242 273.51C8.81055 273.856 9.27539 274.029 9.87695 274.029H9.89062C10.4785 274.029 10.9388 273.849 11.2715 273.489C11.6042 273.129 11.7705 272.63 11.7705 271.992V269.62H7.99707ZM2.76758 284.479C2.76758 283.536 2.97721 282.727 3.39648 282.052C3.82031 281.378 4.4196 280.858 5.19434 280.494C5.96908 280.134 6.88053 279.954 7.92871 279.954H7.94238C8.99967 279.954 9.91341 280.136 10.6836 280.5C11.4538 280.87 12.0485 281.391 12.4678 282.066C12.887 282.745 13.0967 283.549 13.0967 284.479C13.0967 285.413 12.887 286.218 12.4678 286.892C12.0485 287.571 11.4515 288.093 10.6768 288.457C9.90658 288.822 8.99512 289.004 7.94238 289.004H7.92871C6.88053 289.004 5.96908 288.822 5.19434 288.457C4.42415 288.097 3.82715 287.578 3.40332 286.899C2.97949 286.224 2.76758 285.418 2.76758 284.479ZM3.90234 284.479C3.90234 285.153 4.06868 285.734 4.40137 286.222C4.73405 286.71 5.20117 287.086 5.80273 287.35C6.40885 287.614 7.11751 287.746 7.92871 287.746H7.94238C8.7627 287.746 9.47363 287.614 10.0752 287.35C10.6768 287.086 11.1416 286.71 11.4697 286.222C11.7979 285.734 11.9619 285.153 11.9619 284.479C11.9619 283.809 11.7979 283.23 11.4697 282.743C11.1416 282.255 10.6768 281.877 10.0752 281.608C9.47363 281.343 8.7627 281.211 7.94238 281.211H7.92871C7.11751 281.211 6.40885 281.341 5.80273 281.601C5.20117 281.861 4.73405 282.234 4.40137 282.722C4.06868 283.21 3.90234 283.795 3.90234 284.479ZM3 293.937H12.8643V295.133L4.75684 300.787L5.1875 299.966V300.595H12.8643V301.812H3V300.616L11.0801 294.962L10.6494 295.783V295.154H3V293.937ZM3 309.691H11.7568V306.513H12.8643V314.1H11.7568V310.922H3V309.691ZM3 318.801H12.8643V324.912H11.7568V320.031H8.5918V324.659H7.49805V320.031H4.10742V324.912H3V318.801ZM3 329.941H12.8643V331.137L4.75684 336.79L5.1875 335.97V336.599H12.8643V337.816H3V336.619L11.0801 330.966L10.6494 331.786V331.157H3V329.941ZM3 343.131H12.8643V346.515C12.8643 347.49 12.6683 348.324 12.2764 349.017C11.889 349.714 11.3285 350.247 10.5947 350.617C9.861 350.986 8.97689 351.17 7.94238 351.17H7.92871C6.89421 351.17 6.00781 350.986 5.26953 350.617C4.53581 350.247 3.97298 349.717 3.58105 349.024C3.19368 348.331 3 347.495 3 346.515V343.131ZM4.10742 344.362V346.433C4.10742 347.167 4.25781 347.793 4.55859 348.313C4.85938 348.832 5.2946 349.229 5.86426 349.502C6.43392 349.776 7.11751 349.913 7.91504 349.913H7.92871C8.73079 349.913 9.41667 349.774 9.98633 349.496C10.5605 349.222 10.998 348.826 11.2988 348.306C11.6042 347.787 11.7568 347.162 11.7568 346.433V344.362H4.10742Z" fill="#070707"/>
</svg>
