<svg width="961" height="182" viewBox="0 0 961 182" fill="none" xmlns="http://www.w3.org/2000/svg">
<g style="mix-blend-mode:difference">
<path d="M14.3555 139V102.408H1.43555V96.7246H33.8672V102.408H20.9473V139H14.3555ZM37.4285 139V96.7246H43.991V114.596H65.6707V96.7246H72.2625V139H65.6707V120.279H43.991V139H37.4285ZM78.2848 139V96.7246H105.121V102.408H84.8473V114.713H104.037V120.221H84.8473V133.316H105.121V139H78.2848ZM124.532 139.703C121.368 139.703 118.594 139.225 116.211 138.268C113.848 137.311 111.973 135.943 110.586 134.166C109.2 132.369 108.418 130.23 108.243 127.75L108.213 127.311H114.629L114.688 127.691C114.883 128.98 115.42 130.104 116.299 131.061C117.198 131.998 118.37 132.721 119.815 133.229C121.26 133.736 122.92 133.99 124.795 133.99C126.69 133.99 128.321 133.727 129.688 133.199C131.055 132.672 132.11 131.92 132.852 130.943C133.614 129.967 133.995 128.824 133.995 127.516V127.486C133.995 125.787 133.379 124.439 132.149 123.443C130.938 122.428 128.926 121.617 126.114 121.012L121.514 120.045C117.373 119.166 114.287 117.76 112.256 115.826C110.225 113.873 109.209 111.334 109.209 108.209V108.18C109.229 105.777 109.893 103.668 111.202 101.852C112.51 100.016 114.317 98.5898 116.621 97.5742C118.926 96.5391 121.573 96.0215 124.561 96.0215C127.491 96.0215 130.079 96.5195 132.325 97.5156C134.571 98.5117 136.348 99.9082 137.657 101.705C138.965 103.482 139.698 105.562 139.854 107.945L139.883 108.414H133.467L133.409 108.033C133.233 106.705 132.745 105.572 131.944 104.635C131.162 103.697 130.137 102.984 128.868 102.496C127.598 101.988 126.123 101.734 124.444 101.734C122.705 101.734 121.192 101.998 119.903 102.525C118.614 103.033 117.618 103.746 116.914 104.664C116.211 105.582 115.86 106.666 115.86 107.916V107.945C115.86 109.527 116.485 110.816 117.735 111.812C118.985 112.809 120.928 113.59 123.565 114.156L128.164 115.152C132.539 116.07 135.713 117.477 137.686 119.371C139.678 121.246 140.674 123.814 140.674 127.076V127.105C140.674 129.684 140.02 131.92 138.711 133.814C137.422 135.689 135.567 137.145 133.145 138.18C130.743 139.195 127.871 139.703 124.532 139.703ZM144.763 139V96.7246H171.599V102.408H151.325V114.713H170.515V120.221H151.325V133.316H171.599V139H144.763ZM228.24 139V96.7246H244.676C247.547 96.7246 250.037 97.252 252.146 98.3066C254.256 99.3613 255.877 100.855 257.01 102.789C258.162 104.723 258.738 107.018 258.738 109.674V109.732C258.738 112.604 258.006 115.113 256.541 117.262C255.096 119.41 253.104 120.914 250.564 121.773L260.027 139H252.439L243.826 122.799C243.748 122.799 243.68 122.799 243.621 122.799C243.582 122.799 243.523 122.799 243.445 122.799H234.803V139H228.24ZM234.803 117.379H244.031C246.551 117.379 248.504 116.725 249.891 115.416C251.277 114.088 251.971 112.213 251.971 109.791V109.732C251.971 107.408 251.238 105.582 249.773 104.254C248.328 102.906 246.346 102.232 243.826 102.232H234.803V117.379ZM263.296 139V96.7246H290.132V102.408H269.858V114.713H289.048V120.221H269.858V133.316H290.132V139H263.296ZM319.871 139.703C316.707 139.703 313.934 139.225 311.551 138.268C309.188 137.311 307.313 135.943 305.926 134.166C304.539 132.369 303.758 130.23 303.582 127.75L303.553 127.311H309.969L310.028 127.691C310.223 128.98 310.76 130.104 311.639 131.061C312.538 131.998 313.709 132.721 315.155 133.229C316.6 133.736 318.26 133.99 320.135 133.99C322.03 133.99 323.661 133.727 325.028 133.199C326.395 132.672 327.45 131.92 328.192 130.943C328.954 129.967 329.334 128.824 329.334 127.516V127.486C329.334 125.787 328.719 124.439 327.489 123.443C326.278 122.428 324.266 121.617 321.454 121.012L316.854 120.045C312.713 119.166 309.627 117.76 307.596 115.826C305.565 113.873 304.549 111.334 304.549 108.209V108.18C304.569 105.777 305.233 103.668 306.541 101.852C307.85 100.016 309.657 98.5898 311.961 97.5742C314.266 96.5391 316.913 96.0215 319.901 96.0215C322.83 96.0215 325.418 96.5195 327.664 97.5156C329.911 98.5117 331.688 99.9082 332.996 101.705C334.305 103.482 335.038 105.562 335.194 107.945L335.223 108.414H328.807L328.748 108.033C328.573 106.705 328.084 105.572 327.284 104.635C326.502 103.697 325.477 102.984 324.207 102.496C322.938 101.988 321.463 101.734 319.784 101.734C318.045 101.734 316.532 101.998 315.243 102.525C313.954 103.033 312.957 103.746 312.254 104.664C311.551 105.582 311.2 106.666 311.2 107.916V107.945C311.2 109.527 311.825 110.816 313.075 111.812C314.325 112.809 316.268 113.59 318.905 114.156L323.504 115.152C327.879 116.07 331.053 117.477 333.026 119.371C335.018 121.246 336.014 123.814 336.014 127.076V127.105C336.014 129.684 335.36 131.92 334.051 133.814C332.762 135.689 330.907 137.145 328.485 138.18C326.082 139.195 323.211 139.703 319.871 139.703ZM349.39 139V102.408H336.47V96.7246H368.902V102.408H355.982V139H349.39ZM388.254 139.703C384.172 139.703 380.646 138.824 377.678 137.066C374.709 135.289 372.424 132.77 370.822 129.508C369.221 126.227 368.42 122.35 368.42 117.877V117.818C368.42 113.346 369.221 109.479 370.822 106.217C372.443 102.955 374.738 100.445 377.707 98.6875C380.676 96.9102 384.191 96.0215 388.254 96.0215C392.297 96.0215 395.803 96.9102 398.771 98.6875C401.74 100.465 404.025 102.984 405.627 106.246C407.229 109.488 408.029 113.346 408.029 117.818V117.877C408.029 122.35 407.229 126.217 405.627 129.479C404.025 132.74 401.74 135.26 398.771 137.037C395.822 138.814 392.316 139.703 388.254 139.703ZM388.254 133.873C390.949 133.873 393.273 133.219 395.227 131.91C397.18 130.602 398.684 128.746 399.738 126.344C400.793 123.941 401.32 121.119 401.32 117.877V117.818C401.32 114.557 400.783 111.734 399.709 109.352C398.654 106.949 397.141 105.104 395.168 103.814C393.215 102.506 390.91 101.852 388.254 101.852C385.578 101.852 383.254 102.496 381.281 103.785C379.328 105.074 377.814 106.92 376.74 109.322C375.666 111.705 375.129 114.537 375.129 117.818V117.877C375.129 121.139 375.666 123.971 376.74 126.373C377.814 128.775 379.328 130.631 381.281 131.939C383.234 133.229 385.559 133.873 388.254 133.873ZM412.499 139V96.7246H428.934C431.805 96.7246 434.296 97.252 436.405 98.3066C438.514 99.3613 440.136 100.855 441.268 102.789C442.421 104.723 442.997 107.018 442.997 109.674V109.732C442.997 112.604 442.264 115.113 440.8 117.262C439.354 119.41 437.362 120.914 434.823 121.773L444.286 139H436.698L428.085 122.799C428.007 122.799 427.938 122.799 427.88 122.799C427.841 122.799 427.782 122.799 427.704 122.799H419.061V139H412.499ZM419.061 117.379H428.29C430.809 117.379 432.763 116.725 434.149 115.416C435.536 114.088 436.229 112.213 436.229 109.791V109.732C436.229 107.408 435.497 105.582 434.032 104.254C432.587 102.906 430.604 102.232 428.085 102.232H419.061V117.379ZM447.554 139V96.7246H454.117V139H447.554ZM460.11 139V96.7246H486.946V102.408H466.672V114.713H485.862V120.221H466.672V133.316H486.946V139H460.11ZM506.357 139.703C503.193 139.703 500.419 139.225 498.036 138.268C495.673 137.311 493.798 135.943 492.411 134.166C491.025 132.369 490.243 130.23 490.068 127.75L490.038 127.311H496.454L496.513 127.691C496.708 128.98 497.245 130.104 498.124 131.061C499.023 131.998 500.195 132.721 501.64 133.229C503.085 133.736 504.745 133.99 506.62 133.99C508.515 133.99 510.146 133.727 511.513 133.199C512.88 132.672 513.935 131.92 514.677 130.943C515.439 129.967 515.82 128.824 515.82 127.516V127.486C515.82 125.787 515.204 124.439 513.974 123.443C512.763 122.428 510.751 121.617 507.939 121.012L503.339 120.045C499.198 119.166 496.112 117.76 494.081 115.826C492.05 113.873 491.034 111.334 491.034 108.209V108.18C491.054 105.777 491.718 103.668 493.027 101.852C494.335 100.016 496.142 98.5898 498.446 97.5742C500.751 96.5391 503.398 96.0215 506.386 96.0215C509.316 96.0215 511.904 96.5195 514.15 97.5156C516.396 98.5117 518.173 99.9082 519.482 101.705C520.79 103.482 521.523 105.562 521.679 107.945L521.708 108.414H515.292L515.234 108.033C515.058 106.705 514.57 105.572 513.769 104.635C512.987 103.697 511.962 102.984 510.693 102.496C509.423 101.988 507.948 101.734 506.269 101.734C504.53 101.734 503.017 101.998 501.728 102.525C500.439 103.033 499.443 103.746 498.739 104.664C498.036 105.582 497.685 106.666 497.685 107.916V107.945C497.685 109.527 498.31 110.816 499.56 111.812C500.81 112.809 502.753 113.59 505.39 114.156L509.989 115.152C514.364 116.07 517.538 117.477 519.511 119.371C521.503 121.246 522.499 123.814 522.499 127.076V127.105C522.499 129.684 521.845 131.92 520.536 133.814C519.247 135.689 517.392 137.145 514.97 138.18C512.568 139.195 509.696 139.703 506.357 139.703ZM536.917 139V96.7246H543.479V139H536.917ZM559.801 139V96.7246H566.364V114.596H588.043V96.7246H594.635V139H588.043V120.279H566.364V139H559.801ZM600.657 139V96.7246H627.493V102.408H607.22V114.713H626.409V120.221H607.22V133.316H627.493V139H600.657ZM632.49 139V96.7246H639.053V133.316H658.77V139H632.49ZM665.846 124.557V119.049H676.686C679.518 119.049 681.716 118.316 683.278 116.852C684.86 115.367 685.651 113.316 685.651 110.699V110.641C685.651 107.984 684.86 105.924 683.278 104.459C681.716 102.994 679.518 102.262 676.686 102.262H665.846V96.7246H678.327C681.1 96.7246 683.532 97.3105 685.622 98.4824C687.731 99.6348 689.382 101.256 690.573 103.346C691.764 105.416 692.36 107.828 692.36 110.582V110.641C692.36 113.395 691.764 115.826 690.573 117.936C689.382 120.025 687.731 121.656 685.622 122.828C683.532 123.98 681.1 124.557 678.327 124.557H665.846ZM662.565 139V96.7246H669.128V139H662.565ZM727.318 139V96.7246H742.23C746.43 96.7246 750.014 97.5547 752.982 99.2148C755.971 100.855 758.256 103.238 759.838 106.363C761.439 109.488 762.24 113.277 762.24 117.73V117.789C762.24 122.242 761.449 126.061 759.867 129.244C758.285 132.408 756 134.83 753.012 136.51C750.043 138.17 746.449 139 742.23 139H727.318ZM733.881 133.316H741.615C744.604 133.316 747.133 132.721 749.203 131.529C751.273 130.338 752.846 128.59 753.92 126.285C754.994 123.98 755.531 121.168 755.531 117.848V117.789C755.531 114.488 754.984 111.695 753.891 109.41C752.816 107.105 751.244 105.367 749.174 104.195C747.123 103.004 744.604 102.408 741.615 102.408H733.881V133.316ZM791.453 139.703C788.289 139.703 785.515 139.225 783.132 138.268C780.769 137.311 778.894 135.943 777.507 134.166C776.121 132.369 775.339 130.23 775.164 127.75L775.134 127.311H781.55L781.609 127.691C781.804 128.98 782.341 130.104 783.22 131.061C784.119 131.998 785.291 132.721 786.736 133.229C788.181 133.736 789.841 133.99 791.716 133.99C793.611 133.99 795.242 133.727 796.609 133.199C797.976 132.672 799.031 131.92 799.773 130.943C800.535 129.967 800.916 128.824 800.916 127.516V127.486C800.916 125.787 800.3 124.439 799.07 123.443C797.859 122.428 795.847 121.617 793.035 121.012L788.435 120.045C784.295 119.166 781.209 117.76 779.177 115.826C777.146 113.873 776.13 111.334 776.13 108.209V108.18C776.15 105.777 776.814 103.668 778.123 101.852C779.431 100.016 781.238 98.5898 783.543 97.5742C785.847 96.5391 788.494 96.0215 791.482 96.0215C794.412 96.0215 797 96.5195 799.246 97.5156C801.492 98.5117 803.269 99.9082 804.578 101.705C805.886 103.482 806.619 105.562 806.775 107.945L806.804 108.414H800.388L800.33 108.033C800.154 106.705 799.666 105.572 798.865 104.635C798.084 103.697 797.058 102.984 795.789 102.496C794.519 101.988 793.045 101.734 791.365 101.734C789.627 101.734 788.113 101.998 786.824 102.525C785.535 103.033 784.539 103.746 783.836 104.664C783.132 105.582 782.781 106.666 782.781 107.916V107.945C782.781 109.527 783.406 110.816 784.656 111.812C785.906 112.809 787.849 113.59 790.486 114.156L795.086 115.152C799.461 116.07 802.634 117.477 804.607 119.371C806.599 121.246 807.595 123.814 807.595 127.076V127.105C807.595 129.684 806.941 131.92 805.632 133.814C804.343 135.689 802.488 137.145 800.066 138.18C797.664 139.195 794.793 139.703 791.453 139.703ZM811.684 139V96.7246H818.246V114.596H839.926V96.7246H846.518V139H839.926V120.279H818.246V139H811.684ZM849.405 139L864.786 96.7246H870.118V103.727H868.273L856.32 139H849.405ZM856.876 127.574L858.78 122.301H877.882L879.786 127.574H856.876ZM880.343 139L868.419 103.727V96.7246H871.905L887.257 139H880.343ZM893.396 124.557V119.049H904.236C907.068 119.049 909.266 118.316 910.828 116.852C912.41 115.367 913.201 113.316 913.201 110.699V110.641C913.201 107.984 912.41 105.924 910.828 104.459C909.266 102.994 907.068 102.262 904.236 102.262H893.396V96.7246H905.877C908.65 96.7246 911.082 97.3105 913.172 98.4824C915.281 99.6348 916.932 101.256 918.123 103.346C919.314 105.416 919.91 107.828 919.91 110.582V110.641C919.91 113.395 919.314 115.826 918.123 117.936C916.932 120.025 915.281 121.656 913.172 122.828C911.082 123.98 908.65 124.557 905.877 124.557H893.396ZM890.115 139V96.7246H896.678V139H890.115ZM923.882 139V96.7246H950.718V102.408H930.444V114.713H949.634V120.221H930.444V133.316H950.718V139H923.882Z" fill="white"/>
</g>
<g style="mix-blend-mode:difference">
<path d="M720.84 99.52C720.84 97.92 721.32 96.42 722.28 95.02C723.28 93.58 724.58 92.38 726.18 91.42L726.36 91.72C722.92 93.84 721.2 96.44 721.2 99.52C721.2 101.28 721.88 102.7 723.24 103.78C724.64 104.86 726.52 105.4 728.88 105.4C732.28 105.4 735.2 104.36 737.64 102.28C740.16 100.2 741.42 97.66 741.42 94.66C741.42 92.5 740.6 90.78 738.96 89.5C737.32 88.18 735.24 87.52 732.72 87.52C728.52 87.52 724.4 88.84 720.36 91.48C715.88 94.44 712.76 99.2 711 105.76C710.64 106.88 710.46 107.9 710.46 108.82C711.3 108.82 712 108.86 712.56 108.94C714.24 109.3 715.08 110 715.08 111.04C715.08 112.08 714.36 112.6 712.92 112.6H712.8C711.08 112.6 709.74 111.56 708.78 109.48C704.1 110.52 698.92 113.62 693.24 118.78C690.6 121.18 688.12 123.88 685.8 126.88C683.48 129.84 681.62 133.04 680.22 136.48C678.82 139.88 678.12 143.1 678.12 146.14C678.12 148.18 678.76 149.76 680.04 150.88C681.28 152.04 683.08 152.64 685.44 152.68C685.2 151.4 685.08 150.04 685.08 148.6C685.08 145.08 685.92 141.24 687.6 137.08C689.32 132.96 691.5 129.2 694.14 125.8C696.9 122.32 700.04 119.46 703.56 117.22C707.16 114.94 710.7 113.8 714.18 113.8C716.82 113.8 718.88 114.52 720.36 115.96C721.84 117.4 722.58 119.38 722.58 121.9C722.58 124.78 721.74 127.76 720.06 130.84C718.42 133.92 716.2 136.76 713.4 139.36C709.4 143.16 704.76 146.36 699.48 148.96C694.24 151.6 689.72 152.94 685.92 152.98C687.2 157.9 690.4 160.36 695.52 160.36L695.4 160.66C690.04 160.66 686.76 158.12 685.56 153.04H685.32C681.96 153.04 679.38 151.98 677.58 149.86C675.78 147.78 674.88 145 674.88 141.52C674.88 138.04 676.06 134.4 678.42 130.6C680.82 126.64 683.68 123.24 687 120.4C690.44 117.44 694.1 114.92 697.98 112.84C701.98 110.68 705.5 109.4 708.54 109C708.18 107.92 708.02 106.82 708.06 105.7C708.22 102.02 709.64 98.66 712.32 95.62C715 92.58 718.18 90.34 721.86 88.9C725.5 87.42 729.12 86.8 732.72 87.04C735.44 87.16 737.62 87.9 739.26 89.26C740.94 90.58 741.78 92.38 741.78 94.66C741.78 97.74 740.48 100.36 737.88 102.52C735.32 104.68 732.32 105.76 728.88 105.76C726.4 105.76 724.44 105.2 723 104.08C721.56 102.92 720.84 101.4 720.84 99.52ZM685.44 148.6C685.44 150.24 685.58 151.6 685.86 152.68C691.1 152.6 697.14 150.4 703.98 146.08C707.22 144.12 710.2 141.86 712.92 139.3C715.76 136.7 718.02 133.86 719.7 130.78C721.38 127.7 722.22 124.74 722.22 121.9C722.22 119.46 721.52 117.56 720.12 116.2C718.72 114.84 716.74 114.16 714.18 114.16C710.7 114.16 707.2 115.3 703.68 117.58C700.12 119.86 697.02 122.72 694.38 126.16C691.74 129.68 689.6 133.42 687.96 137.38C686.28 141.42 685.44 145.16 685.44 148.6ZM710.46 109.24C710.58 111.24 711.4 112.24 712.92 112.24H713.04C714.2 112.24 714.78 111.84 714.78 111.04C714.78 110.48 714.34 110.02 713.46 109.66C712.58 109.3 711.58 109.16 710.46 109.24Z" fill="white"/>
</g>
<g style="mix-blend-mode:difference">
<path d="M202.4 85.84C206.24 85.84 210.36 86.22 214.76 86.98C219.16 87.74 222.8 88.52 225.68 89.32C229.6 90.4 233.02 91.4 235.94 92.32L241.1 93.88C243.82 92.24 246.44 91.42 248.96 91.42C251.72 91.42 253.1 92.1 253.1 93.46C253.1 94.26 252.68 94.88 251.84 95.32C251 95.76 249.9 95.98 248.54 95.98C246.66 95.98 244.1 95.5 240.86 94.54H240.74C237.7 96.46 234.6 99.24 231.44 102.88C228.28 106.52 224.5 111.44 220.1 117.64H224C224.08 117.64 224.12 117.68 224.12 117.76C224.12 117.84 224.08 117.88 224 117.88H219.92L218.36 120.16C216.16 123.36 214.02 126.42 211.94 129.34C210.26 131.7 208.28 134.1 206 136.54C203.6 139.14 201.54 140.96 199.82 142C199.94 142.04 200.24 142.06 200.72 142.06C202.76 142.06 205.08 141.3 207.68 139.78C210.32 138.3 212.48 136.56 214.16 134.56C215.88 132.6 218 129.96 220.52 126.64L220.82 126.76C218.58 129.76 216.4 132.44 214.28 134.8C212.52 136.76 210.32 138.52 207.68 140.08C205.08 141.6 202.74 142.36 200.66 142.36C200.54 142.36 200.12 142.32 199.4 142.24C197.64 143.28 196 143.8 194.48 143.8C193.44 143.8 192.62 143.58 192.02 143.14C191.42 142.74 191.12 142.24 191.12 141.64C191.12 141.16 191.3 140.76 191.66 140.44C192.02 140.12 192.48 139.96 193.04 139.96C193.72 139.96 194.78 140.26 196.22 140.86C197.54 141.38 198.56 141.72 199.28 141.88C201.8 140.32 204.5 137.82 207.38 134.38C210.3 130.9 213.9 126.04 218.18 119.8L219.5 117.88H205.94L200.9 124C200.22 124.88 199.4 125.88 198.44 127C197.52 128.12 196.94 128.84 196.7 129.16C195.98 130.04 194.6 131.68 192.56 134.08C190.4 136.52 188.92 138.14 188.12 138.94C187 140.02 185.52 141.44 183.68 143.2C181.84 144.96 180.22 146.28 178.82 147.16C177.74 147.92 176.08 148.96 173.84 150.28C171.8 151.48 169.96 152.34 168.32 152.86C164.24 154.22 160.22 154.9 156.26 154.9H155.78C152.14 154.9 149.2 153.7 146.96 151.3C144.72 148.86 143.6 145.82 143.6 142.18C143.6 136.74 145.64 131.86 149.72 127.54C153.8 123.22 158.36 121.06 163.4 121.06C163.48 121.06 163.52 121.1 163.52 121.18C163.52 121.26 163.48 121.3 163.4 121.3L163.22 121.42C158.46 121.42 154.06 123.56 150.02 127.84C145.98 132.12 143.96 136.9 143.96 142.18C143.96 145.74 145.04 148.7 147.2 151.06C149.36 153.38 152.18 154.54 155.66 154.54H156.26C160.02 154.54 164.22 152.92 168.86 149.68C170.78 148.36 173.02 146.46 175.58 143.98C178.22 141.46 180.4 139.28 182.12 137.44C183.8 135.64 186.16 133.04 189.2 129.64L200.06 117.88H195.14C195.06 117.88 195.02 117.84 195.02 117.76L195.14 117.52L200.36 117.58C204.96 112.94 209 109.2 212.48 106.36C216.24 103.32 220.56 100.62 225.44 98.26C230.36 95.9 235.16 94.54 239.84 94.18C239.52 94.06 239.16 93.94 238.76 93.82C238.4 93.7 238.12 93.6 237.92 93.52C237.76 93.44 237.64 93.4 237.56 93.4C234.56 92.36 231.98 91.52 229.82 90.88C227.62 90.2 224.66 89.54 220.94 88.9C217.34 88.26 213.68 87.94 209.96 87.94C205.08 87.94 199.9 88.76 194.42 90.4C188.86 92.08 184.02 94.16 179.9 96.64C175.62 99.2 172.08 102.2 169.28 105.64C166.52 109.08 165.14 112.46 165.14 115.78C165.14 118.46 165.9 120.78 167.42 122.74C168.98 124.66 171.32 125.62 174.44 125.62C177.08 125.62 179.8 124.82 182.6 123.22C185.44 121.58 187.86 119.28 189.86 116.32C191.86 113.36 192.86 110.2 192.86 106.84C192.86 105.4 192.52 104.22 191.84 103.3C191.16 102.34 190.22 101.78 189.02 101.62C188.98 101.58 188.96 101.54 188.96 101.5L189.02 101.32C189.02 101.24 189.06 101.2 189.14 101.2C190.42 101.44 191.42 102.08 192.14 103.12C192.86 104.12 193.22 105.36 193.22 106.84C193.22 110.28 192.2 113.52 190.16 116.56C188.16 119.52 185.74 121.84 182.9 123.52C180.06 125.16 177.24 125.98 174.44 125.98C171.32 125.98 168.9 125.04 167.18 123.16C165.5 121.28 164.66 118.68 164.66 115.36C164.66 112.32 165.44 109.3 167 106.3C168.6 103.26 170.74 100.52 173.42 98.08C177.34 94.44 181.98 91.48 187.34 89.2C192.74 86.92 197.76 85.8 202.4 85.84ZM206.18 117.58L219.68 117.64C227.92 105.8 234.72 98.12 240.08 94.6C233.52 95.12 227.3 97.68 221.42 102.28C218.7 104.44 216.14 106.74 213.74 109.18C211.22 111.78 208.7 114.58 206.18 117.58ZM194.48 143.44C195.88 143.44 197.34 143 198.86 142.12C198.1 141.96 197.2 141.66 196.16 141.22C194.72 140.62 193.68 140.32 193.04 140.32C192.04 140.32 191.54 140.74 191.54 141.58C191.54 142.1 191.8 142.54 192.32 142.9C192.84 143.26 193.56 143.44 194.48 143.44Z" fill="white"/>
</g>
<g style="mix-blend-mode:exclusion">
<path d="M520.3 93.82L520.54 94.12C519.7 96.12 518.34 97.66 516.46 98.74C514.62 99.86 512.54 100.42 510.22 100.42C506.34 100.42 503.4 99.06 501.4 96.34C499.44 93.66 498.46 90.36 498.46 86.44C498.46 85.24 498.62 83.48 498.94 81.16C495.62 80 493.06 77.9 491.26 74.86C489.46 71.86 488.56 68.2 488.56 63.88C488.56 60.24 489.42 56.56 491.14 52.84C492.86 49.08 495.08 45.78 497.8 42.94C500.44 40.14 503.52 37.78 507.04 35.86C510.48 34.02 513.84 33.1 517.12 33.1C521.52 33.1 524.8 34.4 526.96 37C529.12 39.56 530.1 42.84 529.9 46.84C529.78 48.96 529.3 51.2 528.46 53.56L532.18 51.64C532.58 47.96 533.22 44.16 534.1 40.24C535.3 34.88 537.68 30.36 541.24 26.68C544.84 23.04 548.36 21.22 551.8 21.22C553.6 21.22 555.08 21.7 556.24 22.66C557.44 23.62 558.04 25 558.04 26.8C558.04 30.32 556.56 33.74 553.6 37.06C552.36 38.46 550.74 39.88 548.74 41.32C546.3 43.12 544.54 44.34 543.46 44.98C541.9 45.94 540 47.04 537.76 48.28C537.6 49.2 537.2 51.4 536.56 54.88C535.56 59.32 533.52 63.62 530.44 67.78C527.44 71.86 523.6 75.26 518.92 77.98C514.32 80.66 509.52 82 504.52 82C502.76 82 501 81.76 499.24 81.28C498.96 82.68 498.82 84.4 498.82 86.44C498.82 90.32 499.76 93.56 501.64 96.16C503.52 98.76 506.38 100.06 510.22 100.06C512.42 100.06 514.42 99.5 516.22 98.38C518.06 97.26 519.42 95.74 520.3 93.82ZM497.44 60.76C497.44 63.24 498.04 65.4 499.24 67.24C500.48 69.08 502.12 70.34 504.16 71.02C506.52 68.06 509.56 65.26 513.28 62.62C517.04 59.98 521.94 57.04 527.98 53.8C529.02 50.92 529.54 48.24 529.54 45.76C529.54 42.04 528.46 39.06 526.3 36.82C524.18 34.58 521.12 33.46 517.12 33.46C513.92 33.46 510.62 34.38 507.22 36.22C503.9 37.94 500.86 40.26 498.1 43.18C495.5 45.9 493.3 49.18 491.5 53.02C489.78 56.7 488.92 60.32 488.92 63.88C488.92 68.28 489.8 71.94 491.56 74.86C493.36 77.78 495.84 79.72 499 80.68C499.84 77.56 501.48 74.42 503.92 71.26C501.84 70.62 500.18 69.36 498.94 67.48C497.7 65.56 497.08 63.32 497.08 60.76C497.08 57.04 498.52 53.46 501.4 50.02C504.28 46.54 507.52 44.8 511.12 44.8C513.32 44.8 515.06 45.44 516.34 46.72L516.22 46.9C514.82 45.74 513.12 45.16 511.12 45.16C507.6 45.16 504.42 46.88 501.58 50.32C498.82 53.76 497.44 57.24 497.44 60.76ZM539.98 34.36C539.7 35.8 538.98 40.28 537.82 47.8C543.34 44.6 547.36 42 549.88 40C555.08 35.8 557.68 31.4 557.68 26.8C557.68 25.36 557.2 24.16 556.24 23.2C555.28 22.24 554.08 21.76 552.64 21.76C549.64 21.76 547 22.88 544.72 25.12C542.48 27.32 540.9 30.4 539.98 34.36ZM507.04 71.74C506.4 71.74 505.5 71.62 504.34 71.38C501.82 74.38 500.16 77.54 499.36 80.86C501.52 81.5 503.78 81.68 506.14 81.4C508.5 81.12 511.38 80.2 514.78 78.64C517.18 77.52 519.4 76.02 521.44 74.14C523.52 72.3 525.48 69.78 527.32 66.58C529.24 63.18 530.64 59.46 531.52 55.42C531.84 54.02 532.06 52.92 532.18 52.12L528.28 54.1C526.44 59.14 523.5 63.34 519.46 66.7C515.42 70.06 511.28 71.74 507.04 71.74ZM507.04 71.38C511.16 71.38 515.18 69.78 519.1 66.58C522.98 63.42 525.86 59.34 527.74 54.34C521.86 57.5 517.1 60.36 513.46 62.92C509.86 65.48 506.88 68.2 504.52 71.08C505.4 71.28 506.24 71.38 507.04 71.38Z" fill="white"/>
</g>
<g style="mix-blend-mode:exclusion">
<path d="M140.216 70.7031C137.618 70.7031 135.382 70.2148 133.507 69.2383C131.651 68.2422 130.206 66.8848 129.171 65.166C128.155 63.4277 127.589 61.4355 127.471 59.1895L127.442 58.8379H133.917L133.946 59.0723C134.044 60.1465 134.337 61.123 134.825 62.002C135.313 62.8613 135.997 63.5547 136.876 64.082C137.774 64.5898 138.868 64.8438 140.157 64.8438C142.325 64.8438 143.975 64.209 145.108 62.9395C146.261 61.6699 146.837 59.8242 146.837 57.4023V27.7246H153.399V57.4609C153.399 61.6406 152.237 64.8926 149.913 67.2168C147.608 69.541 144.376 70.7031 140.216 70.7031ZM176.677 70.7031C173.142 70.7031 170.095 70.0586 167.537 68.7695C164.978 67.4609 163.005 65.6348 161.619 63.291C160.232 60.9473 159.539 58.2324 159.539 55.1465V27.7246H166.101V54.6191C166.101 57.666 167.019 60.1367 168.855 62.0312C170.711 63.9258 173.318 64.873 176.677 64.873C180.056 64.873 182.654 63.9258 184.47 62.0312C186.287 60.1367 187.195 57.666 187.195 54.6191V27.7246H193.787V55.1465C193.787 58.2324 193.093 60.9473 191.707 63.291C190.339 65.6152 188.377 67.4316 185.818 68.7402C183.259 70.0488 180.213 70.7031 176.677 70.7031ZM214.164 70.7031C211 70.7031 208.227 70.2246 205.844 69.2676C203.481 68.3105 201.606 66.9434 200.219 65.166C198.832 63.3691 198.051 61.2305 197.875 58.75L197.846 58.3105H204.262L204.321 58.6914C204.516 59.9805 205.053 61.1035 205.932 62.0605C206.83 62.998 208.002 63.7207 209.448 64.2285C210.893 64.7363 212.553 64.9902 214.428 64.9902C216.323 64.9902 217.954 64.7266 219.321 64.1992C220.688 63.6719 221.743 62.9199 222.485 61.9434C223.246 60.9668 223.627 59.8242 223.627 58.5156V58.4863C223.627 56.7871 223.012 55.4395 221.782 54.4434C220.571 53.4277 218.559 52.6172 215.746 52.0117L211.147 51.0449C207.006 50.166 203.92 48.7598 201.889 46.8262C199.858 44.873 198.842 42.334 198.842 39.209V39.1797C198.862 36.7773 199.526 34.668 200.834 32.8516C202.143 31.0156 203.95 29.5898 206.254 28.5742C208.559 27.5391 211.205 27.0215 214.194 27.0215C217.123 27.0215 219.711 27.5195 221.957 28.5156C224.204 29.5117 225.981 30.9082 227.289 32.7051C228.598 34.4824 229.33 36.5625 229.487 38.9453L229.516 39.4141H223.1L223.041 39.0332C222.866 37.7051 222.377 36.5723 221.577 35.6348C220.795 34.6973 219.77 33.9844 218.5 33.4961C217.231 32.9883 215.756 32.7344 214.077 32.7344C212.338 32.7344 210.825 32.998 209.536 33.5254C208.246 34.0332 207.25 34.7461 206.547 35.6641C205.844 36.582 205.493 37.666 205.493 38.916V38.9453C205.493 40.5273 206.118 41.8164 207.368 42.8125C208.618 43.8086 210.561 44.5898 213.198 45.1562L217.797 46.1523C222.172 47.0703 225.346 48.4766 227.319 50.3711C229.311 52.2461 230.307 54.8145 230.307 58.0762V58.1055C230.307 60.6836 229.653 62.9199 228.344 64.8145C227.055 66.6895 225.2 68.1445 222.778 69.1797C220.375 70.1953 217.504 70.7031 214.164 70.7031ZM243.683 70V33.4082H230.763V27.7246H263.195V33.4082H250.275V70H243.683ZM280.366 55.5566V50.0488H291.206C294.038 50.0488 296.235 49.3164 297.798 47.8516C299.38 46.3672 300.171 44.3164 300.171 41.6992V41.6406C300.171 38.9844 299.38 36.9238 297.798 35.459C296.235 33.9941 294.038 33.2617 291.206 33.2617H280.366V27.7246H292.846C295.62 27.7246 298.052 28.3105 300.141 29.4824C302.251 30.6348 303.901 32.2559 305.093 34.3457C306.284 36.416 306.88 38.8281 306.88 41.582V41.6406C306.88 44.3945 306.284 46.8262 305.093 48.9355C303.901 51.0254 302.251 52.6562 300.141 53.8281C298.052 54.9805 295.62 55.5566 292.846 55.5566H280.366ZM277.085 70V27.7246H283.647V70H277.085ZM310.851 70V27.7246H327.287C330.158 27.7246 332.648 28.252 334.757 29.3066C336.867 30.3613 338.488 31.8555 339.621 33.7891C340.773 35.7227 341.349 38.0176 341.349 40.6738V40.7324C341.349 43.6035 340.617 46.1133 339.152 48.2617C337.707 50.4102 335.714 51.9141 333.175 52.7734L342.638 70H335.05L326.437 53.7988C326.359 53.7988 326.291 53.7988 326.232 53.7988C326.193 53.7988 326.134 53.7988 326.056 53.7988H317.414V70H310.851ZM317.414 48.3789H326.642C329.162 48.3789 331.115 47.7246 332.502 46.416C333.888 45.0879 334.582 43.2129 334.582 40.791V40.7324C334.582 38.4082 333.849 36.582 332.384 35.2539C330.939 33.9062 328.957 33.2324 326.437 33.2324H317.414V48.3789ZM364.217 70.7031C360.135 70.7031 356.61 69.8242 353.641 68.0664C350.672 66.2891 348.387 63.7695 346.786 60.5078C345.184 57.2266 344.383 53.3496 344.383 48.877V48.8184C344.383 44.3457 345.184 40.4785 346.786 37.2168C348.407 33.9551 350.702 31.4453 353.67 29.6875C356.639 27.9102 360.155 27.0215 364.217 27.0215C368.26 27.0215 371.766 27.9102 374.735 29.6875C377.704 31.4648 379.989 33.9844 381.59 37.2461C383.192 40.4883 383.993 44.3457 383.993 48.8184V48.877C383.993 53.3496 383.192 57.2168 381.59 60.4785C379.989 63.7402 377.704 66.2598 374.735 68.0371C371.786 69.8145 368.28 70.7031 364.217 70.7031ZM364.217 64.873C366.913 64.873 369.237 64.2188 371.19 62.9102C373.143 61.6016 374.647 59.7461 375.702 57.3438C376.756 54.9414 377.284 52.1191 377.284 48.877V48.8184C377.284 45.5566 376.746 42.7344 375.672 40.3516C374.618 37.9492 373.104 36.1035 371.131 34.8145C369.178 33.5059 366.873 32.8516 364.217 32.8516C361.541 32.8516 359.217 33.4961 357.245 34.7852C355.291 36.0742 353.778 37.9199 352.704 40.3223C351.629 42.7051 351.092 45.5371 351.092 48.8184V48.877C351.092 52.1387 351.629 54.9707 352.704 57.373C353.778 59.7754 355.291 61.6309 357.245 62.9395C359.198 64.2285 361.522 64.873 364.217 64.873ZM398.452 70.7031C395.855 70.7031 393.618 70.2148 391.743 69.2383C389.888 68.2422 388.443 66.8848 387.407 65.166C386.392 63.4277 385.825 61.4355 385.708 59.1895L385.679 58.8379H392.154L392.183 59.0723C392.28 60.1465 392.573 61.123 393.062 62.002C393.55 62.8613 394.234 63.5547 395.112 64.082C396.011 64.5898 397.105 64.8438 398.394 64.8438C400.562 64.8438 402.212 64.209 403.345 62.9395C404.497 61.6699 405.073 59.8242 405.073 57.4023V27.7246H411.636V57.4609C411.636 61.6406 410.474 64.8926 408.15 67.2168C405.845 69.541 402.612 70.7031 398.452 70.7031ZM417.775 70V27.7246H444.611V33.4082H424.338V45.7129H443.527V51.2207H424.338V64.3164H444.611V70H417.775ZM467.684 70.7031C463.7 70.7031 460.233 69.8145 457.284 68.0371C454.354 66.2598 452.089 63.7402 450.487 60.4785C448.886 57.1973 448.085 53.3203 448.085 48.8477V48.8184C448.085 44.3457 448.886 40.4785 450.487 37.2168C452.089 33.9551 454.354 31.4453 457.284 29.6875C460.214 27.9102 463.68 27.0215 467.684 27.0215C470.79 27.0215 473.593 27.6172 476.093 28.8086C478.593 30 480.653 31.6504 482.274 33.7598C483.895 35.8691 484.921 38.3203 485.35 41.1133L485.38 41.4062H478.846L478.671 40.8203C478.221 39.1602 477.489 37.7344 476.473 36.543C475.477 35.3516 474.237 34.4434 472.753 33.8184C471.288 33.1738 469.598 32.8516 467.684 32.8516C465.067 32.8516 462.792 33.5059 460.858 34.8145C458.944 36.123 457.46 37.9688 456.405 40.3516C455.35 42.7344 454.823 45.5566 454.823 48.8184V48.8477C454.823 52.0898 455.35 54.9219 456.405 57.3438C457.46 59.7461 458.954 61.6016 460.888 62.9102C462.821 64.2188 465.087 64.873 467.684 64.873C469.559 64.873 471.229 64.5605 472.694 63.9355C474.179 63.291 475.438 62.3535 476.473 61.123C477.509 59.8926 478.28 58.3887 478.788 56.6113L478.876 56.3184H485.409L485.35 56.6113C484.921 59.4238 483.895 61.8945 482.274 64.0234C480.673 66.1328 478.622 67.7734 476.122 68.9453C473.622 70.1172 470.809 70.7031 467.684 70.7031ZM498.287 70V33.4082H485.367V27.7246H517.798V33.4082H504.879V70H498.287ZM550.032 55.7324V49.9609H597.434V55.7324H550.032Z" fill="white"/>
</g>
<g style="mix-blend-mode:exclusion">
<path d="M3.89648 27V69.2754H9.96094L35.9766 31.9219L29.0332 38.0742H31.875V69.2754H38.4082V27H32.3438L6.32812 64.4121L13.2715 58.2891H10.4297V27H3.89648ZM62.7117 26.2969C58.6297 26.2969 55.1043 27.1758 52.1355 28.9336C49.1668 30.7109 46.8816 33.2305 45.2801 36.4922C43.6785 39.7734 42.8777 43.6504 42.8777 48.123V48.1816C42.8777 52.6543 43.6785 56.5215 45.2801 59.7832C46.9012 63.0449 49.1961 65.5547 52.1648 67.3125C55.1336 69.0898 58.6492 69.9785 62.7117 69.9785C66.7547 69.9785 70.2605 69.0898 73.2293 67.3125C76.198 65.5352 78.4832 63.0156 80.0848 59.7539C81.6863 56.5117 82.4871 52.6543 82.4871 48.1816V48.123C82.4871 43.6504 81.6863 39.7832 80.0848 36.5215C78.4832 33.2598 76.198 30.7402 73.2293 28.9629C70.2801 27.1855 66.7742 26.2969 62.7117 26.2969ZM62.7117 32.127C65.407 32.127 67.7313 32.7812 69.6844 34.0898C71.6375 35.3984 73.1414 37.2539 74.1961 39.6562C75.2508 42.0586 75.7781 44.8809 75.7781 48.123V48.1816C75.7781 51.4434 75.241 54.2656 74.1668 56.6484C73.1121 59.0508 71.5984 60.8965 69.6258 62.1855C67.6727 63.4941 65.368 64.1484 62.7117 64.1484C60.0359 64.1484 57.7117 63.5039 55.7391 62.2148C53.7859 60.9258 52.2723 59.0801 51.198 56.6777C50.1238 54.2949 49.5867 51.4629 49.5867 48.1816V48.123C49.5867 44.8613 50.1238 42.0293 51.198 39.627C52.2723 37.2246 53.7859 35.3691 55.7391 34.0605C57.6922 32.7715 60.0164 32.127 62.7117 32.127ZM94.8961 27V63.5918H81.9762V69.2754H114.408V63.5918H101.488V27H94.8961Z" fill="white"/>
</g>
</svg>
