<svg width="12" height="100" viewBox="0 0 12 100" fill="none" xmlns="http://www.w3.org/2000/svg">
<path d="M7.47949 98.8455H6.38574V96.0564C6.38574 95.3501 6.20345 94.8032 5.83887 94.4158C5.46973 94.0285 4.96159 93.8348 4.31445 93.8348H4.30078C3.64909 93.8348 3.14095 94.0285 2.77637 94.4158C2.41178 94.8032 2.22949 95.3501 2.22949 96.0564L2.22949 98.8455H1.13574V95.742C1.13574 95.1222 1.2679 94.5753 1.53223 94.1014C1.79655 93.6274 2.16569 93.256 2.63965 92.9871C3.11361 92.7137 3.66276 92.577 4.28711 92.577H4.30078C4.92513 92.577 5.47656 92.7137 5.95508 92.9871C6.43359 93.256 6.80729 93.6274 7.07617 94.1014C7.34505 94.5753 7.47949 95.1222 7.47949 95.742V98.8455ZM11 99.4607H1.13574L1.13574 98.2303H11V99.4607ZM11.2324 83.6178C11.2324 84.5611 11.0228 85.3701 10.6035 86.0445C10.1797 86.719 9.5804 87.2385 8.80566 87.6031C8.03092 87.9632 7.11947 88.1432 6.07129 88.1432H6.05762C5.00033 88.1432 4.08659 87.9609 3.31641 87.5963C2.54622 87.2271 1.9515 86.7053 1.53223 86.0309C1.11296 85.3518 0.90332 84.5475 0.90332 83.6178C0.90332 82.6835 1.11296 81.8792 1.53223 81.2047C1.9515 80.5257 2.5485 80.0038 3.32324 79.6393C4.09342 79.2747 5.00488 79.0924 6.05762 79.0924H6.07129C7.11947 79.0924 8.03092 79.2747 8.80566 79.6393C9.57585 79.9993 10.1729 80.5188 10.5967 81.1979C11.0205 81.8723 11.2324 82.679 11.2324 83.6178ZM10.0977 83.6178C10.0977 82.9433 9.93132 82.3622 9.59863 81.8746C9.26595 81.387 8.79883 81.011 8.19727 80.7467C7.59115 80.4824 6.88249 80.3502 6.07129 80.3502H6.05762C5.2373 80.3502 4.52637 80.4824 3.9248 80.7467C3.32324 81.011 2.8584 81.387 2.53027 81.8746C2.20215 82.3622 2.03809 82.9433 2.03809 83.6178C2.03809 84.2877 2.20215 84.8665 2.53027 85.3541C2.8584 85.8417 3.32324 86.22 3.9248 86.4889C4.52637 86.7532 5.2373 86.8854 6.05762 86.8854H6.07129C6.88249 86.8854 7.59115 86.7555 8.19727 86.4957C8.79883 86.2359 9.26595 85.8622 9.59863 85.3746C9.93132 84.887 10.0977 84.3014 10.0977 83.6178ZM11 74.1596H1.13574L1.13574 70.393C1.13574 69.7595 1.25879 69.2081 1.50488 68.7387C1.74642 68.2647 2.08594 67.8979 2.52344 67.6381C2.96094 67.3783 3.47591 67.2484 4.06836 67.2484H4.08203C4.76563 67.2484 5.35807 67.4239 5.85938 67.7748C6.36068 68.1257 6.70931 68.6111 6.90527 69.2309L11 66.9477V68.39L7.09668 70.5023C7.09668 70.5115 7.09668 70.5229 7.09668 70.5365C7.09668 70.5502 7.09668 70.5616 7.09668 70.5707V72.9291H11V74.1596ZM6.00293 72.9291V70.5023C6.00293 69.8689 5.84115 69.3813 5.51758 69.0395C5.18945 68.6931 4.72461 68.5199 4.12305 68.5199H4.10938C3.52148 68.5199 3.0612 68.6999 2.72852 69.06C2.39583 69.42 2.22949 69.919 2.22949 70.557V72.9291H6.00293ZM11 59.6496H2.24316L2.24316 62.8283H1.13574L1.13574 55.2404H2.24316V58.4191H11V59.6496ZM11 50.54H1.13574L1.13574 44.5518H2.24316L2.24316 49.3096H5.63379L5.63379 44.9414H6.72754V49.3096H11V50.54ZM11.2324 35.5857C11.2324 36.5291 11.0228 37.338 10.6035 38.0125C10.1797 38.687 9.5804 39.2065 8.80566 39.5711C8.03092 39.9311 7.11947 40.1111 6.07129 40.1111H6.05762C5.00033 40.1111 4.08659 39.9288 3.31641 39.5643C2.54622 39.1951 1.9515 38.6733 1.53223 37.9988C1.11296 37.3198 0.90332 36.5154 0.90332 35.5857C0.90332 34.6515 1.11296 33.8471 1.53223 33.1727C1.9515 32.4936 2.5485 31.9718 3.32324 31.6072C4.09342 31.2426 5.00488 31.0604 6.05762 31.0604H6.07129C7.11947 31.0604 8.03092 31.2426 8.80566 31.6072C9.57585 31.9673 10.1729 32.4868 10.5967 33.1658C11.0205 33.8403 11.2324 34.6469 11.2324 35.5857ZM10.0977 35.5857C10.0977 34.9113 9.93132 34.3302 9.59863 33.8426C9.26595 33.3549 8.79883 32.979 8.19727 32.7146C7.59115 32.4503 6.88249 32.3182 6.07129 32.3182H6.05762C5.2373 32.3182 4.52637 32.4503 3.9248 32.7146C3.32324 32.979 2.8584 33.3549 2.53027 33.8426C2.20215 34.3302 2.03809 34.9113 2.03809 35.5857C2.03809 36.2557 2.20215 36.8344 2.53027 37.3221C2.8584 37.8097 3.32324 38.188 3.9248 38.4568C4.52637 38.7212 5.2373 38.8533 6.05762 38.8533H6.07129C6.88249 38.8533 7.59115 38.7234 8.19727 38.4637C8.79883 38.2039 9.26595 37.8302 9.59863 37.3426C9.93132 36.8549 10.0977 36.2693 10.0977 35.5857ZM11 26.1275H1.13574V24.8971H9.89258L9.89258 20.1393H11L11 26.1275ZM11 15.3705H1.13574V14.14H11V15.3705ZM11.2324 4.68184C11.2324 5.6252 11.0228 6.43412 10.6035 7.1086C10.1797 7.78308 9.5804 8.30261 8.80566 8.66719C8.03092 9.02722 7.11947 9.20723 6.07129 9.20723H6.05762C5.00033 9.20723 4.08659 9.02494 3.31641 8.66035C2.54622 8.29121 1.9515 7.7694 1.53223 7.09492C1.11296 6.41589 0.90332 5.61153 0.90332 4.68184C0.90332 3.74759 1.11296 2.94323 1.53223 2.26875C1.9515 1.58972 2.5485 1.06791 3.32324 0.703323C4.09342 0.33874 5.00488 0.156448 6.05762 0.156448H6.07129C7.11947 0.156448 8.03092 0.33874 8.80566 0.703323C9.57585 1.06335 10.1729 1.58288 10.5967 2.26192C11.0205 2.9364 11.2324 3.74304 11.2324 4.68184ZM10.0977 4.68184C10.0977 4.00736 9.93132 3.42631 9.59863 2.93867C9.26595 2.45104 8.79883 2.07507 8.19727 1.81075C7.59115 1.54642 6.88249 1.41426 6.07129 1.41426H6.05762C5.2373 1.41426 4.52637 1.54642 3.9248 1.81075C3.32324 2.07507 2.8584 2.45104 2.53027 2.93867C2.20215 3.42631 2.03809 4.00736 2.03809 4.68184C2.03809 5.35176 2.20215 5.93054 2.53027 6.41817C2.8584 6.9058 3.32324 7.28405 3.9248 7.55293C4.52637 7.81726 5.2373 7.94942 6.05762 7.94942H6.07129C6.88249 7.94942 7.59115 7.81953 8.19727 7.55977C8.79883 7.3 9.26595 6.92631 9.59863 6.43867C9.93132 5.95104 10.0977 5.36543 10.0977 4.68184Z" fill="#F8F8F8"/>
</svg>
