<svg width="212" height="212" viewBox="0 0 212 212" fill="none" xmlns="http://www.w3.org/2000/svg">
<path d="M116.667 -43.3333C116.667 -46.1623 115.543 -48.8754 113.542 -50.8758C111.542 -52.8762 108.829 -54 106 -54C103.171 -54 100.458 -52.8762 98.4575 -50.8758C96.4571 -48.8754 95.3333 -46.1623 95.3333 -43.3333V80.2578L30.5796 15.4756C29.5961 14.4563 28.4194 13.6432 27.1183 13.0835C25.8172 12.5239 24.4177 12.229 23.0014 12.216C21.5851 12.2031 20.1804 12.4723 18.8692 13.008C17.5581 13.5437 16.3668 14.3352 15.3648 15.3362C14.3628 16.3373 13.5702 17.5278 13.0333 18.8385C12.4963 20.1491 12.2258 21.5536 12.2374 22.9699C12.249 24.3862 12.5426 25.786 13.101 27.0876C13.6594 28.3893 14.4715 29.5667 15.4898 30.5511L80.2578 95.3333H-43.3333C-46.1623 95.3333 -48.8754 96.4571 -50.8758 98.4575C-52.8762 100.458 -54 103.171 -54 106C-54 108.829 -52.8762 111.542 -50.8758 113.542C-48.8754 115.543 -46.1623 116.667 -43.3333 116.667H80.2578L15.4898 181.42C13.5458 183.431 12.4694 186.125 12.4923 188.922C12.5153 191.719 13.6359 194.395 15.6126 196.373C17.5894 198.352 20.2642 199.475 23.061 199.501C25.8577 199.526 28.5527 198.452 30.5653 196.51L95.3333 131.756L95.3333 255.333C95.3333 258.162 96.4571 260.875 98.4575 262.876C100.458 264.876 103.171 266 106 266C108.829 266 111.542 264.876 113.542 262.876C115.543 260.875 116.667 258.162 116.667 255.333L116.667 131.742L181.42 196.51C183.431 198.454 186.125 199.531 188.922 199.508C191.719 199.485 194.395 198.364 196.373 196.387C198.352 194.411 199.475 191.736 199.501 188.939C199.526 186.142 198.452 183.447 196.51 181.435L131.756 116.667L255.333 116.667C258.162 116.667 260.875 115.543 262.876 113.542C264.876 111.542 266 108.829 266 106C266 103.171 264.876 100.458 262.876 98.4575C260.875 96.4571 258.162 95.3333 255.333 95.3333L131.742 95.3333L196.51 30.5796C197.529 29.5961 198.343 28.4194 198.902 27.1183C199.462 25.8172 199.757 24.4177 199.77 23.0014C199.783 21.5851 199.513 20.1804 198.978 18.8692C198.442 17.5581 197.651 16.3668 196.65 15.3648C195.649 14.3628 194.458 13.5702 193.147 13.0333C191.837 12.4963 190.432 12.2258 189.016 12.2374C187.6 12.249 186.2 12.5426 184.898 13.101C183.597 13.6594 182.419 14.4715 181.435 15.4898L116.667 80.2436V-43.3333Z" fill="white"/>
</svg>
