<svg width="874" height="116" viewBox="0 0 874 116" fill="none" xmlns="http://www.w3.org/2000/svg">
<g style="mix-blend-mode:exclusion">
<path d="M12.98 73.78H13.52C17.76 73.78 22.12 71.86 26.6 68.02C28.72 66.26 30.74 64.38 32.66 62.38C34.62 60.38 36.7 58.04 38.9 55.36C46.34 46.64 51.16 41.12 53.36 38.8C59.96 31.92 64.76 28.8 67.76 29.44L68.18 29.62C64.82 29.22 61.34 31.42 57.74 36.22C56.18 38.18 54.54 40.5 52.82 43.18L47.48 51.34C45.4 54.46 43.64 56.92 42.2 58.72C38.24 63.52 33.74 67.24 28.7 69.88C23.7 72.52 18.64 73.94 13.52 74.14H13.1C9.5 74.14 6.5 72.9 4.1 70.42C1.74 67.94 0.56 64.92 0.56 61.36C0.56 56.96 2.1 53 5.18 49.48C4.98 47.92 5.1 46.18 5.54 44.26C6.22 40.94 7.64 37.68 9.8 34.48C11.96 31.24 14.62 28.34 17.78 25.78C20.98 23.18 24.72 21.12 29 19.6C33.32 18.08 37.72 17.32 42.2 17.32C45.28 17.32 48.7 17.78 52.46 18.7C56.26 19.62 59.5 20.6 62.18 21.64C65.26 22.76 68.58 23.74 72.14 24.58C75.9 25.46 79.54 25.9 83.06 25.9C88.3 25.9 92.04 24.72 94.28 22.36C95.88 20.68 96.18 19.04 95.18 17.44C94.66 16.64 93.82 15.96 92.66 15.4H93.08C95.36 16.36 96.42 18 96.26 20.32C96.14 22.76 94.78 24.94 92.18 26.86C89.38 28.94 85.88 29.98 81.68 29.98C78.76 29.98 75.58 29.36 72.14 28.12C68.66 26.84 65.56 25.46 62.84 23.98C60.04 22.46 56.84 21.08 53.24 19.84C49.6 18.56 46.22 17.92 43.1 17.92C39.54 17.92 35.92 18.54 32.24 19.78C28.6 20.98 25.28 22.62 22.28 24.7C18 27.58 14.3 31 11.18 34.96C8.1 38.92 6.28 42.46 5.72 45.58C5.44 46.86 5.36 48.04 5.48 49.12C8.88 45.36 12.88 43.48 17.48 43.48H17.66V43.84H17.48C12.92 43.84 8.94 45.76 5.54 49.6C5.82 51.76 6.68 53.5 8.12 54.82C9.56 56.1 11.54 56.74 14.06 56.74C15.94 56.74 18.04 56.24 20.36 55.24C22.72 54.24 24.94 52.9 27.02 51.22C29.18 49.5 30.94 47.42 32.3 44.98C33.74 42.54 34.46 40 34.46 37.36C34.46 34.8 33.38 33.3 31.22 32.86V32.5C33.62 32.98 34.82 34.6 34.82 37.36C34.82 39.92 34.12 42.48 32.72 45.04C31.32 47.56 29.52 49.7 27.32 51.46C25.16 53.18 22.88 54.56 20.48 55.6C18.12 56.6 15.98 57.1 14.06 57.1C11.54 57.1 9.52 56.48 8 55.24C6.48 53.96 5.56 52.18 5.24 49.9C2.32 53.3 0.86 57.12 0.86 61.36C0.86 64.84 2.02 67.76 4.34 70.12C6.66 72.56 9.54 73.78 12.98 73.78Z" fill="white"/>
</g>
<g style="mix-blend-mode:exclusion">
<path d="M57.8965 67V24.7246H64.459V42.5957H86.1387V24.7246H92.7305V67H86.1387V48.2793H64.459V67H57.8965ZM98.7527 67V24.7246H125.589V30.4082H105.315V42.7129H124.505V48.2207H105.315V61.3164H125.589V67H98.7527ZM145 67.7031C141.836 67.7031 139.062 67.2246 136.679 66.2676C134.316 65.3105 132.441 63.9434 131.054 62.166C129.668 60.3691 128.886 58.2305 128.711 55.75L128.681 55.3105H135.097L135.156 55.6914C135.351 56.9805 135.888 58.1035 136.767 59.0605C137.666 59.998 138.838 60.7207 140.283 61.2285C141.728 61.7363 143.388 61.9902 145.263 61.9902C147.158 61.9902 148.789 61.7266 150.156 61.1992C151.523 60.6719 152.578 59.9199 153.32 58.9434C154.082 57.9668 154.463 56.8242 154.463 55.5156V55.4863C154.463 53.7871 153.847 52.4395 152.617 51.4434C151.406 50.4277 149.394 49.6172 146.582 49.0117L141.982 48.0449C137.841 47.166 134.755 45.7598 132.724 43.8262C130.693 41.873 129.677 39.334 129.677 36.209V36.1797C129.697 33.7773 130.361 31.668 131.67 29.8516C132.978 28.0156 134.785 26.5898 137.089 25.5742C139.394 24.5391 142.041 24.0215 145.029 24.0215C147.959 24.0215 150.546 24.5195 152.793 25.5156C155.039 26.5117 156.816 27.9082 158.125 29.7051C159.433 31.4824 160.166 33.5625 160.322 35.9453L160.351 36.4141H153.935L153.877 36.0332C153.701 34.7051 153.213 33.5723 152.412 32.6348C151.63 31.6973 150.605 30.9844 149.336 30.4961C148.066 29.9883 146.591 29.7344 144.912 29.7344C143.173 29.7344 141.66 29.998 140.371 30.5254C139.082 31.0332 138.086 31.7461 137.382 32.6641C136.679 33.582 136.328 34.666 136.328 35.916V35.9453C136.328 37.5273 136.953 38.8164 138.203 39.8125C139.453 40.8086 141.396 41.5898 144.033 42.1562L148.632 43.1523C153.007 44.0703 156.181 45.4766 158.154 47.3711C160.146 49.2461 161.142 51.8145 161.142 55.0762V55.1055C161.142 57.6836 160.488 59.9199 159.179 61.8145C157.89 63.6895 156.035 65.1445 153.613 66.1797C151.211 67.1953 148.339 67.7031 145 67.7031ZM165.231 67V24.7246H192.067V30.4082H171.793V42.7129H190.983V48.2207H171.793V61.3164H192.067V67H165.231ZM204.258 67L219.639 24.7246H224.971V31.7266H223.125L211.172 67H204.258ZM211.729 55.5742L213.633 50.3008H232.734L234.639 55.5742H211.729ZM235.195 67L223.271 31.7266V24.7246H226.758L242.109 67H235.195ZM244.968 67V24.7246H261.403C264.274 24.7246 266.764 25.252 268.874 26.3066C270.983 27.3613 272.604 28.8555 273.737 30.7891C274.889 32.7227 275.466 35.0176 275.466 37.6738V37.7324C275.466 40.6035 274.733 43.1133 273.268 45.2617C271.823 47.4102 269.831 48.9141 267.292 49.7734L276.755 67H269.167L260.554 50.7988C260.475 50.7988 260.407 50.7988 260.348 50.7988C260.309 50.7988 260.251 50.7988 260.173 50.7988H251.53V67H244.968ZM251.53 45.3789H260.759C263.278 45.3789 265.231 44.7246 266.618 43.416C268.005 42.0879 268.698 40.2129 268.698 37.791V37.7324C268.698 35.4082 267.966 33.582 266.501 32.2539C265.055 30.9062 263.073 30.2324 260.554 30.2324H251.53V45.3789ZM280.023 67V24.7246H306.859V30.4082H286.586V42.7129H305.775V48.2207H286.586V61.3164H306.859V67H280.023ZM332.644 67V30.4082H319.724V24.7246H352.155V30.4082H339.236V67H332.644ZM355.717 67V24.7246H362.279V42.5957H383.959V24.7246H390.551V67H383.959V48.2793H362.279V67H355.717ZM396.573 67V24.7246H423.409V30.4082H403.136V42.7129H422.325V48.2207H403.136V61.3164H423.409V67H396.573Z" fill="white"/>
</g>
<g style="mix-blend-mode:exclusion">
<path d="M547.896 67V24.7246H564.332C567.203 24.7246 569.693 25.252 571.803 26.3066C573.912 27.3613 575.533 28.8555 576.666 30.7891C577.818 32.7227 578.395 35.0176 578.395 37.6738V37.7324C578.395 40.6035 577.662 43.1133 576.197 45.2617C574.752 47.4102 572.76 48.9141 570.221 49.7734L579.684 67H572.096L563.482 50.7988C563.404 50.7988 563.336 50.7988 563.277 50.7988C563.238 50.7988 563.18 50.7988 563.102 50.7988H554.459V67H547.896ZM554.459 45.3789H563.688C566.207 45.3789 568.16 44.7246 569.547 43.416C570.934 42.0879 571.627 40.2129 571.627 37.791V37.7324C571.627 35.4082 570.895 33.582 569.43 32.2539C567.984 30.9062 566.002 30.2324 563.482 30.2324H554.459V45.3789ZM582.952 67V24.7246H589.514V61.3164H609.231V67H582.952ZM613.027 67V24.7246H627.939C632.138 24.7246 635.722 25.5547 638.691 27.2148C641.679 28.8555 643.964 31.2383 645.546 34.3633C647.148 37.4883 647.949 41.2773 647.949 45.7305V45.7891C647.949 50.2422 647.158 54.0605 645.576 57.2441C643.994 60.4082 641.709 62.8301 638.72 64.5098C635.752 66.1699 632.158 67 627.939 67H613.027ZM619.589 61.3164H627.324C630.312 61.3164 632.841 60.7207 634.912 59.5293C636.982 58.3379 638.554 56.5898 639.629 54.2852C640.703 51.9805 641.24 49.168 641.24 45.8477V45.7891C641.24 42.4883 640.693 39.6953 639.599 37.4102C638.525 35.1055 636.953 33.3672 634.882 32.1953C632.832 31.0039 630.312 30.4082 627.324 30.4082H619.589V61.3164ZM666.832 67.7031C663.668 67.7031 660.895 67.2246 658.512 66.2676C656.149 65.3105 654.274 63.9434 652.887 62.166C651.5 60.3691 650.719 58.2305 650.543 55.75L650.514 55.3105H656.93L656.989 55.6914C657.184 56.9805 657.721 58.1035 658.6 59.0605C659.498 59.998 660.67 60.7207 662.116 61.2285C663.561 61.7363 665.221 61.9902 667.096 61.9902C668.991 61.9902 670.621 61.7266 671.989 61.1992C673.356 60.6719 674.411 59.9199 675.153 58.9434C675.914 57.9668 676.295 56.8242 676.295 55.5156V55.4863C676.295 53.7871 675.68 52.4395 674.45 51.4434C673.239 50.4277 671.227 49.6172 668.414 49.0117L663.815 48.0449C659.674 47.166 656.588 45.7598 654.557 43.8262C652.526 41.873 651.51 39.334 651.51 36.209V36.1797C651.53 33.7773 652.194 31.668 653.502 29.8516C654.811 28.0156 656.618 26.5898 658.922 25.5742C661.227 24.5391 663.873 24.0215 666.862 24.0215C669.791 24.0215 672.379 24.5195 674.625 25.5156C676.871 26.5117 678.649 27.9082 679.957 29.7051C681.266 31.4824 681.998 33.5625 682.155 35.9453L682.184 36.4141H675.768L675.709 36.0332C675.534 34.7051 675.045 33.5723 674.245 32.6348C673.463 31.6973 672.438 30.9844 671.168 30.4961C669.899 29.9883 668.424 29.7344 666.745 29.7344C665.006 29.7344 663.493 29.998 662.204 30.5254C660.914 31.0332 659.918 31.7461 659.215 32.6641C658.512 33.582 658.161 34.666 658.161 35.916V35.9453C658.161 37.5273 658.786 38.8164 660.036 39.8125C661.286 40.8086 663.229 41.5898 665.866 42.1562L670.465 43.1523C674.84 44.0703 678.014 45.4766 679.987 47.3711C681.979 49.2461 682.975 51.8145 682.975 55.0762V55.1055C682.975 57.6836 682.321 59.9199 681.012 61.8145C679.723 63.6895 677.868 65.1445 675.446 66.1797C673.043 67.1953 670.172 67.7031 666.832 67.7031ZM697.393 67V24.7246H703.955V67H697.393ZM723.558 67V61.6387H735.921C738.851 61.6387 741.087 61.0527 742.63 59.8809C744.173 58.709 744.945 57 744.945 54.7539V54.6953C744.945 53.1719 744.584 51.9023 743.861 50.8867C743.158 49.8711 742.103 49.1094 740.697 48.6016C739.291 48.0742 737.543 47.8105 735.453 47.8105H723.558V42.7422H734.134C737.025 42.7422 739.232 42.1758 740.755 41.043C742.279 39.9102 743.041 38.2891 743.041 36.1797V36.1211C743.041 34.168 742.386 32.6738 741.078 31.6387C739.789 30.6035 737.953 30.0859 735.57 30.0859H723.558V24.7246H737.152C739.671 24.7246 741.859 25.1641 743.714 26.043C745.589 26.9023 747.035 28.1328 748.05 29.7344C749.086 31.3164 749.603 33.1719 749.603 35.3008V35.3594C749.603 36.8438 749.261 38.25 748.578 39.5781C747.894 40.9062 746.957 42.0195 745.765 42.918C744.593 43.8164 743.255 44.373 741.752 44.5879V44.7051C743.763 44.9004 745.511 45.4668 746.996 46.4043C748.5 47.3223 749.652 48.5234 750.453 50.0078C751.273 51.4727 751.683 53.1426 751.683 55.0176V55.0762C751.683 57.5566 751.097 59.6855 749.925 61.4629C748.773 63.2402 747.123 64.6074 744.974 65.5645C742.826 66.5215 740.248 67 737.24 67H723.558ZM720.277 67V24.7246H726.839V67H720.277ZM772.647 67.7031C769.112 67.7031 766.065 67.0586 763.506 65.7695C760.948 64.4609 758.975 62.6348 757.588 60.291C756.202 57.9473 755.508 55.2324 755.508 52.1465V24.7246H762.071V51.6191C762.071 54.666 762.989 57.1367 764.825 59.0312C766.68 60.9258 769.288 61.873 772.647 61.873C776.026 61.873 778.623 60.9258 780.44 59.0312C782.256 57.1367 783.164 54.666 783.164 51.6191V24.7246H789.756V52.1465C789.756 55.2324 789.063 57.9473 787.676 60.291C786.309 62.6152 784.346 64.4316 781.788 65.7402C779.229 67.0488 776.182 67.7031 772.647 67.7031ZM795.72 67V24.7246H802.282V67H795.72ZM808.275 67V24.7246H814.838V61.3164H834.555V67H808.275ZM838.35 67V24.7246H853.263C857.462 24.7246 861.046 25.5547 864.014 27.2148C867.003 28.8555 869.288 31.2383 870.87 34.3633C872.471 37.4883 873.272 41.2773 873.272 45.7305V45.7891C873.272 50.2422 872.481 54.0605 870.899 57.2441C869.317 60.4082 867.032 62.8301 864.044 64.5098C861.075 66.1699 857.481 67 853.263 67H838.35ZM844.913 61.3164H852.647C855.636 61.3164 858.165 60.7207 860.235 59.5293C862.305 58.3379 863.878 56.5898 864.952 54.2852C866.026 51.9805 866.563 49.168 866.563 45.8477V45.7891C866.563 42.4883 866.016 39.6953 864.923 37.4102C863.848 35.1055 862.276 33.3672 860.206 32.1953C858.155 31.0039 855.636 30.4082 852.647 30.4082H844.913V61.3164Z" fill="white"/>
</g>
<g style="mix-blend-mode:exclusion">
<path d="M471.38 14.5C473.5 14.5 475.58 14.84 477.62 15.52C480.54 14.84 483.2 14.5 485.6 14.5C490.76 14.5 494.9 16.16 498.02 19.48C501.14 22.76 502.6 26.96 502.4 32.08C502.32 34.76 501.6 37.56 500.24 40.48C498.56 44.08 497 46.88 495.56 48.88L492.62 52.9C491.82 54.06 490.72 55.44 489.32 57.04L486.14 60.82L482.78 64.6C482.38 65.08 481.94 65.58 481.46 66.1C480.98 66.62 480.62 67.02 480.38 67.3C480.14 67.58 479.96 67.78 479.84 67.9C486.32 64.7 492.66 59.96 498.86 53.68C505.02 47.4 508.58 41.94 509.54 37.3C510.1 34.42 510.36 32.26 510.32 30.82C510.28 29.02 510.92 27.8 512.24 27.16C513.44 26.6 514.38 26.82 515.06 27.82C515.74 28.74 515.8 30.14 515.24 32.02C513.96 35.98 511.42 40.38 507.62 45.22C503.86 49.98 499.46 54.46 494.42 58.66C489.5 62.74 484.58 66 479.66 68.44C478.14 70.72 476.5 72.74 474.74 74.5C472.82 76.74 471.18 77.86 469.82 77.86C469.02 77.86 468.74 77.42 468.98 76.54C469.34 75.3 470.64 73.8 472.88 72.04C474.2 71.08 476.4 69.72 479.48 67.96C486.32 58.52 491.12 50.3 493.88 43.3C485.2 55.22 475.72 63.6 465.44 68.44C463.92 70.72 462.28 72.74 460.52 74.5C458.6 76.74 456.96 77.86 455.6 77.86C454.8 77.86 454.52 77.42 454.76 76.54C455.12 75.3 456.42 73.8 458.66 72.04C459.98 71.08 462.18 69.72 465.26 67.96C470.06 61.36 474.16 54.74 477.56 48.1C480.8 41.7 482.58 35.44 482.9 29.32C483.02 26.64 482.76 24.28 482.12 22.24C481.52 20.16 480.3 18.42 478.46 17.02C476.66 15.58 474.3 14.86 471.38 14.86C466.82 14.86 462.22 16.12 457.58 18.64C452.98 21.12 449.1 24.18 445.94 27.82C442.74 31.46 440.12 35.28 438.08 39.28C436.08 43.36 435.08 46.94 435.08 50.02C435.08 52.38 435.62 54.32 436.7 55.84C437.78 57.36 439.4 58.12 441.56 58.12C443.48 58.12 445.64 57.46 448.04 56.14C450.48 54.82 452.74 53.06 454.82 50.86C456.94 48.58 458.72 45.88 460.16 42.76C461.56 39.56 462.3 36.26 462.38 32.86C462.46 29.26 461.24 27.18 458.72 26.62L459.02 26.32C461.62 27 462.88 29.18 462.8 32.86C462.8 36.3 462.06 39.64 460.58 42.88C459.14 46.16 457.34 48.9 455.18 51.1C452.98 53.34 450.66 55.14 448.22 56.5C445.78 57.82 443.56 58.48 441.56 58.48C439.16 58.48 437.32 57.58 436.04 55.78C434.76 53.98 434.16 51.52 434.24 48.4C434.32 43.96 435.42 39.66 437.54 35.5C439.66 31.38 442.46 27.76 445.94 24.64C449.34 21.64 453.32 19.2 457.88 17.32C462.44 15.44 466.94 14.5 471.38 14.5ZM465.62 67.9C471.7 65.02 477.74 60.58 483.74 54.58C489.82 48.58 493.78 43.1 495.62 38.14C496.5 35.14 497 32.2 497.12 29.32C497.24 26.64 496.98 24.28 496.34 22.24C495.74 20.16 494.52 18.42 492.68 17.02C490.88 15.58 488.52 14.86 485.6 14.86C483.12 14.86 480.66 15.16 478.22 15.76C481.46 17.04 483.96 19.14 485.72 22.06C487.52 24.98 488.34 28.32 488.18 32.08C488.1 34.76 487.38 37.56 486.02 40.48C484.34 44.08 482.78 46.88 481.34 48.88L478.4 52.9C477.6 54.06 476.5 55.44 475.1 57.04L471.92 60.82L468.56 64.6C468.16 65.08 467.72 65.58 467.24 66.1C466.76 66.62 466.4 67.02 466.16 67.3C465.92 67.58 465.74 67.78 465.62 67.9Z" fill="white"/>
</g>
<g style="mix-blend-mode:difference">
<path d="M527.5 69.9C533.971 69.9 540.177 67.3293 544.753 62.7534C549.329 58.1775 551.9 51.9713 551.9 45.5C551.9 39.0287 549.329 32.8225 544.753 28.2466C540.177 23.6707 533.971 21.1 527.5 21.1C521.028 21.1 514.822 23.6707 510.246 28.2466C505.67 32.8225 503.1 39.0287 503.1 45.5C503.1 51.9713 505.67 58.1775 510.246 62.7534C514.822 67.3293 521.028 69.9 527.5 69.9ZM527.5 24.15C529.503 24.15 531.791 25.9495 533.667 29.9694C534.329 31.3907 534.905 33.0255 535.372 34.825H519.628C520.094 33.0255 520.671 31.3907 521.336 29.9694C523.205 25.9495 525.493 24.15 527.5 24.15ZM518.569 28.6792C517.669 30.652 516.971 32.7111 516.486 34.825H509.004C511.579 30.3743 515.669 26.9986 520.527 25.3151C519.792 26.3216 519.137 27.4623 518.569 28.6792ZM515.885 37.875C515.491 40.3974 515.295 42.9469 515.3 45.5C515.3 48.1535 515.504 50.7216 515.888 53.125H507.553C506.624 50.6902 506.148 48.106 506.15 45.5C506.15 42.816 506.647 40.2418 507.553 37.875H515.885ZM516.486 56.175C517.023 58.4411 517.727 60.5121 518.569 62.3207C519.137 63.5377 519.792 64.6784 520.527 65.6849C515.669 64.0013 511.579 60.6257 509.004 56.175H516.486ZM519.628 56.175H535.372C534.951 57.8419 534.379 59.4672 533.664 61.0306C531.794 65.0505 529.507 66.85 527.5 66.85C525.493 66.85 523.208 65.0505 521.333 61.0306C520.619 59.4669 520.047 57.8417 519.628 56.175ZM536.024 53.125H518.978C518.556 50.6053 518.346 48.0547 518.35 45.5C518.35 42.8068 518.572 40.2387 518.978 37.875H536.021C536.427 40.2387 536.65 42.8068 536.65 45.5C536.65 48.1931 536.427 50.7612 536.021 53.125M538.513 56.175H545.995C543.42 60.6257 539.33 64.0013 534.472 65.6849C535.207 64.6784 535.863 63.5377 536.43 62.3207C537.272 60.5121 537.976 58.4411 538.513 56.175ZM547.45 53.125H539.111C539.495 50.7216 539.7 48.1535 539.7 45.5C539.7 42.8465 539.495 40.2784 539.111 37.875H547.447C548.352 40.2418 548.85 42.816 548.85 45.5C548.85 48.184 548.356 50.7582 547.45 53.125ZM534.469 25.3151C539.328 26.998 543.42 30.3737 545.995 34.825H538.51C538.026 32.7111 537.328 30.652 536.427 28.6792C535.884 27.4972 535.229 26.3706 534.469 25.3151Z" fill="#F8F8F8"/>
</g>
</svg>
