<svg width="17" height="75" viewBox="0 0 17 75" fill="none" xmlns="http://www.w3.org/2000/svg">
<path d="M13.2324 70.2838C13.2324 71.0038 13.1162 71.6327 12.8838 72.1705C12.6468 72.7037 12.3232 73.1275 11.9131 73.442C11.4984 73.7519 11.0244 73.9319 10.4912 73.982L10.416 73.9889V72.7584L10.4912 72.7516C10.8193 72.7197 11.1042 72.5943 11.3457 72.3756C11.5827 72.1523 11.7673 71.8561 11.8994 71.4869C12.0316 71.1132 12.0977 70.6894 12.0977 70.2154C12.0977 69.7688 12.027 69.3723 11.8857 69.026C11.7399 68.6751 11.5394 68.3994 11.2842 68.1988C11.029 67.9983 10.735 67.898 10.4023 67.898H10.3955C9.98535 67.898 9.64128 68.0484 9.36328 68.3492C9.08073 68.65 8.86426 69.1399 8.71387 69.8189L8.47461 70.9127C8.25586 71.9016 7.91862 72.6217 7.46289 73.0729C7.0026 73.5195 6.41471 73.7428 5.69922 73.7428H5.69238C5.14551 73.7382 4.66243 73.5901 4.24316 73.2984C3.82389 73.0022 3.49577 72.5943 3.25879 72.0748C3.02181 71.5507 2.90332 70.9492 2.90332 70.2701C2.90332 69.6139 3.02181 69.0328 3.25879 68.527C3.49121 68.0211 3.80566 67.6201 4.20215 67.3238C4.59863 67.023 5.04297 66.8567 5.53516 66.8248L5.63086 66.818V68.0484L5.54199 68.0621C5.25033 68.1077 4.99284 68.2262 4.76953 68.4176C4.54167 68.609 4.36165 68.8642 4.22949 69.1832C4.09733 69.5022 4.03353 69.8759 4.03809 70.3043C4.03809 70.7145 4.10189 71.0836 4.22949 71.4117C4.3571 71.7398 4.54167 72.0019 4.7832 72.1979C5.02018 72.3893 5.31185 72.485 5.6582 72.485H5.66504C6.05697 72.485 6.38737 72.3391 6.65625 72.0475C6.92513 71.7558 7.13249 71.275 7.27832 70.6051L7.52441 69.5113C7.75228 68.4814 8.08268 67.7454 8.51563 67.3033C8.94857 66.8613 9.52051 66.6402 10.2314 66.6402H10.2383C10.8535 66.6402 11.3844 66.7906 11.8311 67.0914C12.2777 67.3922 12.624 67.816 12.8701 68.3629C13.1117 68.9098 13.2324 69.5501 13.2324 70.2838ZM13 61.7895H3.13574L3.13574 55.6781H4.24316L4.24316 60.559H7.4082L7.4082 55.9311H8.50195V60.559H11.8926V55.6781H13V61.7895ZM13 50.6496H3.13574L3.13574 46.883C3.13574 46.2495 3.25879 45.6981 3.50488 45.2287C3.74642 44.7548 4.08594 44.3879 4.52344 44.1281C4.96094 43.8684 5.47591 43.7385 6.06836 43.7385H6.08203C6.76563 43.7385 7.35807 43.9139 7.85938 44.2648C8.36068 44.6158 8.70931 45.1011 8.90527 45.7209L13 43.4377V44.8801L9.09668 46.9924C9.09668 47.0015 9.09668 47.0129 9.09668 47.0266C9.09668 47.0402 9.09668 47.0516 9.09668 47.0607V49.4191H13V50.6496ZM8.00293 49.4191V46.9924C8.00293 46.3589 7.84115 45.8713 7.51758 45.5295C7.18945 45.1831 6.72461 45.01 6.12305 45.01H6.10938C5.52148 45.01 5.0612 45.19 4.72852 45.55C4.39583 45.91 4.22949 46.4091 4.22949 47.0471V49.4191H8.00293ZM13 36.0576L3.13574 39.6943V38.4023L11.4072 35.5039V35.3945L3.13574 32.4961V31.2041L13 34.8408V36.0576ZM13 26.6746H3.13574V25.4441H13V26.6746ZM13.2324 16.1568C13.2324 17.0501 13.0228 17.8225 12.6035 18.4742C12.1842 19.1259 11.5895 19.6295 10.8193 19.985C10.0492 20.3359 9.13542 20.5113 8.07813 20.5113H8.06445C7.0026 20.5113 6.08659 20.3359 5.31641 19.985C4.54622 19.6295 3.9515 19.1282 3.53223 18.4811C3.11296 17.8294 2.90332 17.0569 2.90332 16.1637C2.90332 15.471 3.04004 14.8421 3.31348 14.277C3.58236 13.7073 3.95833 13.2379 4.44141 12.8688C4.91992 12.4996 5.47363 12.2672 6.10254 12.1715L6.11621 12.1783V13.4156L6.10254 13.4225C5.67871 13.5318 5.31413 13.7164 5.00879 13.9762C4.69889 14.2359 4.45964 14.5527 4.29102 14.9264C4.1224 15.2955 4.03809 15.7079 4.03809 16.1637C4.03809 16.7926 4.20215 17.3395 4.53027 17.8043C4.8584 18.2646 5.32324 18.6201 5.9248 18.8707C6.52637 19.1214 7.23958 19.2467 8.06445 19.2467H8.07813C8.89844 19.2467 9.60938 19.1214 10.2109 18.8707C10.8125 18.6201 11.2773 18.2646 11.6055 17.8043C11.9336 17.3395 12.0977 16.7903 12.0977 16.1568C12.0977 15.6966 12.0247 15.2796 11.8789 14.9059C11.7285 14.5322 11.5166 14.2177 11.2432 13.9625C10.9652 13.7073 10.637 13.5296 10.2588 13.4293L10.2451 13.4156V12.1715H10.2588C10.8604 12.2809 11.3844 12.5178 11.8311 12.8824C12.2731 13.247 12.6172 13.7096 12.8633 14.2701C13.1094 14.8261 13.2324 15.455 13.2324 16.1568ZM13 7.30703H3.13574L3.13574 1.1957H4.24316V6.07656H7.4082V1.44863H8.50195V6.07656H11.8926V1.1957H13V7.30703Z" fill="#F8F8F8"/>
</svg>
